<?xml version="1.0" encoding="UTF-8" standalone="no"?><!DOCTYPE svg PUBLIC "-//W3C//DTD SVG 1.1//EN" "http://www.w3.org/Graphics/SVG/1.1/DTD/svg11.dtd"><svg width="100%" height="100%" viewBox="0 0 924 492" version="1.1" xmlns="http://www.w3.org/2000/svg" xmlns:xlink="http://www.w3.org/1999/xlink" xml:space="preserve" xmlns:serif="http://www.serif.com/" style="fill-rule:evenodd;clip-rule:evenodd;stroke-linejoin:round;stroke-miterlimit:2;"><g><rect x="8.399" y="99.236" width="341.375" height="386.386" style="fill:#ffee97;"/><rect x="8.399" y="99.236" width="341.375" height="386.386" style="fill:none;stroke:#000;stroke-width:1.5px;"/><rect x="0" y="0" width="923.691" height="491.502" style="fill:none;"/><path d="M22.404,127.591c-1.632,0 -2.955,-0.612 -3.971,-1.836c-1.015,-1.224 -1.523,-3.042 -1.523,-5.455c0,-2.413 0.512,-4.24 1.536,-5.481c1.024,-1.241 2.369,-1.862 4.036,-1.862c0.694,0 1.306,0.091 1.836,0.273c0.529,0.182 0.985,0.43 1.367,0.742c0.382,0.312 0.703,0.66 0.963,1.042l0.156,0c-0.052,-0.243 -0.104,-0.616 -0.156,-1.12c-0.052,-0.503 -0.078,-0.972 -0.078,-1.406l0,-4.947l3.281,0l0,19.79l-2.552,0l-0.599,-1.849l-0.13,0c-0.26,0.382 -0.582,0.733 -0.963,1.055c-0.382,0.321 -0.833,0.577 -1.354,0.768c-0.521,0.191 -1.137,0.286 -1.849,0.286Zm0.989,-2.656c1.215,0 2.074,-0.347 2.578,-1.042c0.503,-0.694 0.755,-1.745 0.755,-3.151l0,-0.417c0,-1.528 -0.239,-2.691 -0.716,-3.489c-0.477,-0.799 -1.367,-1.198 -2.669,-1.198c-0.989,0 -1.753,0.412 -2.291,1.237c-0.538,0.825 -0.807,1.983 -0.807,3.476c0,1.493 0.269,2.63 0.807,3.411c0.538,0.781 1.319,1.172 2.343,1.172Z" style="fill:#0d0d0d;fill-rule:nonzero;"/><path d="M39.719,112.957c1.267,0 2.356,0.256 3.268,0.768c0.911,0.512 1.619,1.241 2.122,2.187c0.503,0.946 0.755,2.096 0.755,3.45l0,1.667l-9.322,0c0.035,1.285 0.391,2.278 1.068,2.981c0.677,0.703 1.614,1.055 2.812,1.055c0.92,0 1.74,-0.091 2.461,-0.273c0.72,-0.182 1.462,-0.447 2.226,-0.794l0,2.63c-0.694,0.33 -1.415,0.573 -2.161,0.729c-0.746,0.156 -1.64,0.234 -2.682,0.234c-1.371,0 -2.591,-0.265 -3.658,-0.794c-1.068,-0.529 -1.901,-1.332 -2.5,-2.409c-0.599,-1.076 -0.898,-2.413 -0.898,-4.01c0,-1.614 0.273,-2.973 0.82,-4.075c0.547,-1.102 1.306,-1.936 2.278,-2.5c0.972,-0.564 2.109,-0.846 3.411,-0.846Zm0,2.422c-0.868,0 -1.575,0.282 -2.122,0.846c-0.547,0.564 -0.872,1.402 -0.976,2.513l6.067,0c0,-0.66 -0.108,-1.241 -0.325,-1.745c-0.217,-0.503 -0.542,-0.898 -0.976,-1.185c-0.434,-0.286 -0.989,-0.43 -1.666,-0.43Z" style="fill:#0d0d0d;fill-rule:nonzero;"/><path d="M52.546,127.33l-5.364,-14.113l3.463,0l2.812,8.15c0.122,0.33 0.234,0.69 0.338,1.081c0.104,0.391 0.195,0.772 0.273,1.146c0.078,0.373 0.126,0.699 0.143,0.976l0.104,0c0.035,-0.295 0.095,-0.629 0.182,-1.003c0.087,-0.373 0.187,-0.751 0.299,-1.133c0.113,-0.382 0.221,-0.738 0.325,-1.068l2.812,-8.15l3.463,0l-5.364,14.113l-3.489,0Z" style="fill:#0d0d0d;fill-rule:nonzero;"/><path d="M69.21,127.591c-1.337,0 -2.495,-0.256 -3.476,-0.768c-0.981,-0.512 -1.736,-1.302 -2.265,-2.37c-0.529,-1.068 -0.794,-2.435 -0.794,-4.101c0,-1.736 0.291,-3.146 0.872,-4.231c0.582,-1.085 1.384,-1.883 2.409,-2.396c1.024,-0.512 2.196,-0.768 3.515,-0.768c0.885,0 1.675,0.087 2.369,0.26c0.694,0.174 1.285,0.382 1.771,0.625l-0.963,2.578c-0.538,-0.208 -1.076,-0.386 -1.614,-0.534c-0.538,-0.148 -1.059,-0.221 -1.562,-0.221c-0.781,0 -1.428,0.174 -1.94,0.521c-0.512,0.347 -0.89,0.864 -1.133,1.549c-0.243,0.686 -0.365,1.549 -0.365,2.591c0,1.007 0.126,1.849 0.378,2.526c0.252,0.677 0.629,1.185 1.133,1.523c0.503,0.339 1.128,0.508 1.875,0.508c0.799,0 1.502,-0.095 2.109,-0.286c0.608,-0.191 1.18,-0.451 1.719,-0.781l0,2.838c-0.538,0.33 -1.115,0.569 -1.732,0.716c-0.616,0.148 -1.384,0.221 -2.304,0.221Z" style="fill:#0d0d0d;fill-rule:nonzero;"/><path d="M89.155,120.248c0,1.18 -0.156,2.222 -0.469,3.125c-0.312,0.903 -0.759,1.671 -1.341,2.304c-0.582,0.634 -1.293,1.111 -2.135,1.432c-0.842,0.321 -1.775,0.482 -2.799,0.482c-0.972,0 -1.866,-0.161 -2.682,-0.482c-0.816,-0.321 -1.523,-0.799 -2.122,-1.432c-0.599,-0.634 -1.063,-1.402 -1.393,-2.304c-0.33,-0.903 -0.495,-1.944 -0.495,-3.125c0,-1.562 0.269,-2.886 0.807,-3.971c0.538,-1.085 1.315,-1.91 2.33,-2.474c1.015,-0.564 2.218,-0.846 3.606,-0.846c1.319,0 2.478,0.282 3.476,0.846c0.998,0.564 1.784,1.389 2.356,2.474c0.573,1.085 0.859,2.409 0.859,3.971Zm-10.077,0c0,0.989 0.117,1.836 0.352,2.539c0.234,0.703 0.599,1.237 1.094,1.601c0.495,0.365 1.133,0.547 1.914,0.547c0.799,0 1.445,-0.182 1.94,-0.547c0.495,-0.365 0.855,-0.898 1.081,-1.601c0.226,-0.703 0.338,-1.549 0.338,-2.539c0,-1.007 -0.117,-1.853 -0.352,-2.539c-0.234,-0.686 -0.599,-1.206 -1.094,-1.562c-0.495,-0.356 -1.133,-0.534 -1.914,-0.534c-1.18,0 -2.035,0.399 -2.565,1.198c-0.529,0.799 -0.794,1.944 -0.794,3.437Z" style="fill:#0d0d0d;fill-rule:nonzero;"/><path d="M100.091,112.957c1.58,0 2.816,0.408 3.71,1.224c0.894,0.816 1.341,2.135 1.341,3.958l0,9.192l-3.281,0l0,-8.541c0,-1.059 -0.208,-1.853 -0.625,-2.383c-0.417,-0.529 -1.076,-0.794 -1.979,-0.794c-1.319,0 -2.222,0.412 -2.708,1.237c-0.486,0.825 -0.729,2.018 -0.729,3.58l0,6.9l-3.281,0l0,-14.113l2.526,0l0.469,1.849l0.182,0c0.312,-0.486 0.694,-0.885 1.146,-1.198c0.451,-0.312 0.955,-0.542 1.51,-0.69c0.555,-0.148 1.128,-0.221 1.719,-0.221Z" style="fill:#0d0d0d;fill-rule:nonzero;"/><path d="M114.725,124.961c0.417,0 0.816,-0.039 1.198,-0.117c0.382,-0.078 0.738,-0.169 1.068,-0.273l0,2.448c-0.347,0.156 -0.799,0.291 -1.354,0.404c-0.555,0.113 -1.137,0.169 -1.745,0.169c-0.799,0 -1.523,-0.135 -2.174,-0.404c-0.651,-0.269 -1.172,-0.733 -1.562,-1.393c-0.391,-0.66 -0.586,-1.58 -0.586,-2.76l0,-7.343l-1.901,0l0,-1.432l2.083,-1.146l1.042,-2.994l2.057,0l0,3.099l4.01,0l0,2.474l-4.01,0l0,7.317c0,0.66 0.174,1.15 0.521,1.471c0.347,0.321 0.799,0.482 1.354,0.482Z" style="fill:#0d0d0d;fill-rule:nonzero;"/><path d="M125.452,112.957c1.823,0 3.207,0.395 4.153,1.185c0.946,0.79 1.419,2.027 1.419,3.711l0,9.478l-2.317,0l-0.651,-1.953l-0.104,0c-0.399,0.503 -0.812,0.924 -1.237,1.263c-0.425,0.339 -0.911,0.582 -1.458,0.729c-0.547,0.148 -1.211,0.221 -1.992,0.221c-0.833,0 -1.584,-0.156 -2.252,-0.469c-0.668,-0.312 -1.193,-0.794 -1.575,-1.445c-0.382,-0.651 -0.573,-1.471 -0.573,-2.461c0,-1.458 0.534,-2.556 1.601,-3.294c1.068,-0.738 2.686,-1.141 4.856,-1.211l2.448,-0.078l0,-0.703c0,-0.903 -0.217,-1.545 -0.651,-1.927c-0.434,-0.382 -1.042,-0.573 -1.823,-0.573c-0.712,0 -1.397,0.104 -2.057,0.312c-0.66,0.208 -1.302,0.451 -1.927,0.729l-1.042,-2.291c0.694,-0.365 1.489,-0.66 2.382,-0.885c0.894,-0.226 1.827,-0.339 2.799,-0.339Zm0.599,7.76c-1.441,0.052 -2.439,0.299 -2.994,0.742c-0.555,0.443 -0.833,1.037 -0.833,1.784c0,0.66 0.2,1.137 0.599,1.432c0.399,0.295 0.911,0.443 1.536,0.443c0.955,0 1.762,-0.273 2.422,-0.82c0.66,-0.547 0.989,-1.358 0.989,-2.435l0,-1.198l-1.719,0.052Z" style="fill:#0d0d0d;fill-rule:nonzero;"/><path d="M138.419,113.217l0,14.113l-3.281,0l0,-14.113l3.281,0Zm-1.64,-5.442c0.486,0 0.911,0.126 1.276,0.378c0.365,0.252 0.547,0.699 0.547,1.341c0,0.625 -0.182,1.072 -0.547,1.341c-0.365,0.269 -0.79,0.404 -1.276,0.404c-0.503,0 -0.933,-0.135 -1.289,-0.404c-0.356,-0.269 -0.534,-0.716 -0.534,-1.341c0,-0.642 0.178,-1.089 0.534,-1.341c0.356,-0.252 0.785,-0.378 1.289,-0.378Z" style="fill:#0d0d0d;fill-rule:nonzero;"/><path d="M150.162,112.957c1.58,0 2.816,0.408 3.71,1.224c0.894,0.816 1.341,2.135 1.341,3.958l0,9.192l-3.281,0l0,-8.541c0,-1.059 -0.208,-1.853 -0.625,-2.383c-0.417,-0.529 -1.076,-0.794 -1.979,-0.794c-1.319,0 -2.222,0.412 -2.708,1.237c-0.486,0.825 -0.729,2.018 -0.729,3.58l0,6.9l-3.281,0l0,-14.113l2.526,0l0.469,1.849l0.182,0c0.312,-0.486 0.694,-0.885 1.146,-1.198c0.451,-0.312 0.955,-0.542 1.51,-0.69c0.555,-0.148 1.128,-0.221 1.719,-0.221Z" style="fill:#0d0d0d;fill-rule:nonzero;"/><path d="M165.004,112.957c1.267,0 2.356,0.256 3.268,0.768c0.911,0.512 1.619,1.241 2.122,2.187c0.503,0.946 0.755,2.096 0.755,3.45l0,1.667l-9.322,0c0.035,1.285 0.391,2.278 1.068,2.981c0.677,0.703 1.614,1.055 2.812,1.055c0.92,0 1.74,-0.091 2.461,-0.273c0.72,-0.182 1.462,-0.447 2.226,-0.794l0,2.63c-0.694,0.33 -1.415,0.573 -2.161,0.729c-0.746,0.156 -1.64,0.234 -2.682,0.234c-1.371,0 -2.591,-0.265 -3.658,-0.794c-1.068,-0.529 -1.901,-1.332 -2.5,-2.409c-0.599,-1.076 -0.898,-2.413 -0.898,-4.01c0,-1.614 0.273,-2.973 0.82,-4.075c0.547,-1.102 1.306,-1.936 2.278,-2.5c0.972,-0.564 2.109,-0.846 3.411,-0.846Zm0,2.422c-0.868,0 -1.575,0.282 -2.122,0.846c-0.547,0.564 -0.872,1.402 -0.976,2.513l6.067,0c0,-0.66 -0.108,-1.241 -0.325,-1.745c-0.217,-0.503 -0.542,-0.898 -0.976,-1.185c-0.434,-0.286 -0.989,-0.43 -1.666,-0.43Z" style="fill:#0d0d0d;fill-rule:nonzero;"/><path d="M181.851,112.957c0.208,0 0.451,0.009 0.729,0.026c0.278,0.017 0.512,0.052 0.703,0.104l-0.286,3.047c-0.156,-0.035 -0.36,-0.065 -0.612,-0.091c-0.252,-0.026 -0.473,-0.039 -0.664,-0.039c-0.521,0 -1.02,0.082 -1.497,0.247c-0.477,0.165 -0.903,0.408 -1.276,0.729c-0.373,0.321 -0.668,0.733 -0.885,1.237c-0.217,0.503 -0.325,1.102 -0.325,1.797l0,7.317l-3.281,0l0,-14.113l2.526,0l0.469,2.448l0.156,0c0.278,-0.503 0.625,-0.959 1.042,-1.367c0.417,-0.408 0.898,-0.733 1.445,-0.976c0.547,-0.243 1.133,-0.365 1.758,-0.365Z" style="fill:#0d0d0d;fill-rule:nonzero;"/><rect x="366.573" y="96.117" width="325.176" height="291.71" style="fill:#ffe047;"/><rect x="366.573" y="96.117" width="325.176" height="291.71" style="fill:none;stroke:#000;stroke-width:1.5px;"/><path d="M597.208,109.086c0,0.556 -0.022,1.098 -0.065,1.627c-0.043,0.529 -0.082,0.924 -0.117,1.185l0.208,0c0.295,-0.486 0.66,-0.881 1.094,-1.185c0.434,-0.304 0.916,-0.534 1.445,-0.69c0.529,-0.156 1.081,-0.234 1.653,-0.234c1.059,0 1.97,0.182 2.734,0.547c0.764,0.365 1.35,0.924 1.758,1.68c0.408,0.755 0.612,1.74 0.612,2.955l0,9.192l-3.281,0l0,-8.541c0,-1.076 -0.208,-1.875 -0.625,-2.396c-0.417,-0.521 -1.076,-0.781 -1.979,-0.781c-0.868,0 -1.554,0.187 -2.057,0.56c-0.503,0.373 -0.859,0.92 -1.068,1.64c-0.208,0.72 -0.312,1.601 -0.312,2.643l0,6.874l-3.281,0l0,-19.79l3.281,0l0,4.713Z" style="fill:#0d0d0d;fill-rule:nonzero;"/><path d="M623.168,110.049l0,14.113l-2.578,0l-0.443,-1.823l-0.156,0c-0.295,0.486 -0.677,0.881 -1.146,1.185c-0.469,0.304 -0.981,0.529 -1.536,0.677c-0.555,0.148 -1.128,0.221 -1.719,0.221c-1.042,0 -1.944,-0.182 -2.708,-0.547c-0.764,-0.365 -1.345,-0.924 -1.745,-1.68c-0.399,-0.755 -0.599,-1.732 -0.599,-2.929l0,-9.218l3.281,0l0,8.567c0,1.042 0.208,1.827 0.625,2.357c0.417,0.529 1.076,0.794 1.979,0.794c0.885,0 1.58,-0.187 2.083,-0.56c0.503,-0.373 0.859,-0.916 1.068,-1.627c0.208,-0.712 0.312,-1.588 0.312,-2.63l0,-6.9l3.281,0Z" style="fill:#0d0d0d;fill-rule:nonzero;"/><path d="M643.41,109.789c1.597,0 2.799,0.408 3.606,1.224c0.807,0.816 1.211,2.135 1.211,3.958l0,9.192l-3.281,0l0,-8.567c0,-1.042 -0.191,-1.827 -0.573,-2.357c-0.382,-0.529 -0.989,-0.794 -1.823,-0.794c-1.146,0 -1.962,0.373 -2.448,1.12c-0.486,0.746 -0.729,1.831 -0.729,3.255l0,7.343l-3.281,0l0,-8.567c0,-0.694 -0.087,-1.276 -0.26,-1.745c-0.174,-0.469 -0.438,-0.82 -0.794,-1.055c-0.356,-0.234 -0.812,-0.352 -1.367,-0.352c-0.781,0 -1.406,0.187 -1.875,0.56c-0.469,0.373 -0.799,0.916 -0.989,1.627c-0.191,0.712 -0.286,1.588 -0.286,2.63l0,6.9l-3.281,0l0,-14.113l2.526,0l0.469,1.849l0.182,0c0.295,-0.486 0.655,-0.885 1.081,-1.198c0.425,-0.312 0.903,-0.542 1.432,-0.69c0.529,-0.148 1.063,-0.221 1.601,-0.221c1.059,0 1.953,0.178 2.682,0.534c0.729,0.356 1.276,0.907 1.64,1.653l0.26,0c0.434,-0.764 1.046,-1.319 1.836,-1.667c0.79,-0.347 1.61,-0.521 2.461,-0.521Z" style="fill:#0d0d0d;fill-rule:nonzero;"/><path d="M657.965,109.789c1.823,0 3.207,0.395 4.153,1.185c0.946,0.79 1.419,2.027 1.419,3.711l0,9.478l-2.317,0l-0.651,-1.953l-0.104,0c-0.399,0.503 -0.812,0.924 -1.237,1.263c-0.425,0.339 -0.911,0.582 -1.458,0.729c-0.547,0.148 -1.211,0.221 -1.992,0.221c-0.833,0 -1.584,-0.156 -2.252,-0.469c-0.668,-0.312 -1.193,-0.794 -1.575,-1.445c-0.382,-0.651 -0.573,-1.471 -0.573,-2.461c0,-1.458 0.534,-2.556 1.601,-3.294c1.068,-0.738 2.686,-1.141 4.856,-1.211l2.448,-0.078l0,-0.703c0,-0.903 -0.217,-1.545 -0.651,-1.927c-0.434,-0.382 -1.042,-0.573 -1.823,-0.573c-0.712,0 -1.397,0.104 -2.057,0.312c-0.66,0.208 -1.302,0.451 -1.927,0.729l-1.042,-2.291c0.694,-0.365 1.489,-0.66 2.382,-0.885c0.894,-0.226 1.827,-0.339 2.799,-0.339Zm0.599,7.76c-1.441,0.052 -2.439,0.299 -2.994,0.742c-0.555,0.443 -0.833,1.037 -0.833,1.784c0,0.66 0.2,1.137 0.599,1.432c0.399,0.295 0.911,0.443 1.536,0.443c0.955,0 1.762,-0.273 2.422,-0.82c0.66,-0.547 0.989,-1.358 0.989,-2.435l0,-1.198l-1.719,0.052Z" style="fill:#0d0d0d;fill-rule:nonzero;"/><path d="M675.202,109.789c1.58,0 2.816,0.408 3.71,1.224c0.894,0.816 1.341,2.135 1.341,3.958l0,9.192l-3.281,0l0,-8.541c0,-1.059 -0.208,-1.853 -0.625,-2.383c-0.417,-0.529 -1.076,-0.794 -1.979,-0.794c-1.319,0 -2.222,0.412 -2.708,1.237c-0.486,0.825 -0.729,2.018 -0.729,3.58l0,6.9l-3.281,0l0,-14.113l2.526,0l0.469,1.849l0.182,0c0.312,-0.486 0.694,-0.885 1.146,-1.198c0.451,-0.312 0.955,-0.542 1.51,-0.69c0.555,-0.148 1.128,-0.221 1.719,-0.221Z" style="fill:#0d0d0d;fill-rule:nonzero;"/><rect x="43.677" y="148.075" width="244.182" height="64.438" style="fill:#ffe047;"/><rect x="43.677" y="148.075" width="244.182" height="64.438" style="fill:none;stroke:#000;stroke-width:1.5px;"/><path d="M124.792,174.116c0,0.556 -0.022,1.098 -0.065,1.627c-0.043,0.529 -0.082,0.924 -0.117,1.185l0.208,0c0.295,-0.486 0.66,-0.881 1.094,-1.185c0.434,-0.304 0.916,-0.534 1.445,-0.69c0.529,-0.156 1.081,-0.234 1.653,-0.234c1.059,0 1.97,0.182 2.734,0.547c0.764,0.365 1.35,0.924 1.758,1.68c0.408,0.755 0.612,1.74 0.612,2.955l0,9.192l-3.281,0l0,-8.541c0,-1.076 -0.208,-1.875 -0.625,-2.396c-0.417,-0.521 -1.076,-0.781 -1.979,-0.781c-0.868,0 -1.554,0.187 -2.057,0.56c-0.503,0.373 -0.859,0.92 -1.068,1.64c-0.208,0.72 -0.312,1.601 -0.312,2.643l0,6.874l-3.281,0l0,-19.79l3.281,0l0,4.713Z" style="fill:#0d0d0d;fill-rule:nonzero;"/><path d="M150.752,175.079l0,14.113l-2.578,0l-0.443,-1.823l-0.156,0c-0.295,0.486 -0.677,0.881 -1.146,1.185c-0.469,0.304 -0.981,0.529 -1.536,0.677c-0.555,0.148 -1.128,0.221 -1.719,0.221c-1.042,0 -1.944,-0.182 -2.708,-0.547c-0.764,-0.365 -1.345,-0.924 -1.745,-1.68c-0.399,-0.755 -0.599,-1.732 -0.599,-2.929l0,-9.218l3.281,0l0,8.567c0,1.042 0.208,1.827 0.625,2.357c0.417,0.529 1.076,0.794 1.979,0.794c0.885,0 1.58,-0.187 2.083,-0.56c0.503,-0.373 0.859,-0.916 1.068,-1.627c0.208,-0.712 0.312,-1.588 0.312,-2.63l0,-6.9l3.281,0Z" style="fill:#0d0d0d;fill-rule:nonzero;"/><path d="M170.994,174.819c1.597,0 2.799,0.408 3.606,1.224c0.807,0.816 1.211,2.135 1.211,3.958l0,9.192l-3.281,0l0,-8.567c0,-1.042 -0.191,-1.827 -0.573,-2.357c-0.382,-0.529 -0.989,-0.794 -1.823,-0.794c-1.146,0 -1.962,0.373 -2.448,1.12c-0.486,0.746 -0.729,1.831 -0.729,3.255l0,7.343l-3.281,0l0,-8.567c0,-0.694 -0.087,-1.276 -0.26,-1.745c-0.174,-0.469 -0.438,-0.82 -0.794,-1.055c-0.356,-0.234 -0.812,-0.352 -1.367,-0.352c-0.781,0 -1.406,0.187 -1.875,0.56c-0.469,0.373 -0.799,0.916 -0.989,1.627c-0.191,0.712 -0.286,1.588 -0.286,2.63l0,6.9l-3.281,0l0,-14.113l2.526,0l0.469,1.849l0.182,0c0.295,-0.486 0.655,-0.885 1.081,-1.198c0.425,-0.312 0.903,-0.542 1.432,-0.69c0.529,-0.148 1.063,-0.221 1.601,-0.221c1.059,0 1.953,0.178 2.682,0.534c0.729,0.356 1.276,0.907 1.64,1.653l0.26,0c0.434,-0.764 1.046,-1.319 1.836,-1.667c0.79,-0.347 1.61,-0.521 2.461,-0.521Z" style="fill:#0d0d0d;fill-rule:nonzero;"/><path d="M185.549,174.819c1.823,0 3.207,0.395 4.153,1.185c0.946,0.79 1.419,2.027 1.419,3.711l0,9.478l-2.317,0l-0.651,-1.953l-0.104,0c-0.399,0.503 -0.812,0.924 -1.237,1.263c-0.425,0.339 -0.911,0.582 -1.458,0.729c-0.547,0.148 -1.211,0.221 -1.992,0.221c-0.833,0 -1.584,-0.156 -2.252,-0.469c-0.668,-0.312 -1.193,-0.794 -1.575,-1.445c-0.382,-0.651 -0.573,-1.471 -0.573,-2.461c0,-1.458 0.534,-2.556 1.601,-3.294c1.068,-0.738 2.686,-1.141 4.856,-1.211l2.448,-0.078l0,-0.703c0,-0.903 -0.217,-1.545 -0.651,-1.927c-0.434,-0.382 -1.042,-0.573 -1.823,-0.573c-0.712,0 -1.397,0.104 -2.057,0.312c-0.66,0.208 -1.302,0.451 -1.927,0.729l-1.042,-2.291c0.694,-0.365 1.489,-0.66 2.382,-0.885c0.894,-0.226 1.827,-0.339 2.799,-0.339Zm0.599,7.76c-1.441,0.052 -2.439,0.299 -2.994,0.742c-0.555,0.443 -0.833,1.037 -0.833,1.784c0,0.66 0.2,1.137 0.599,1.432c0.399,0.295 0.911,0.443 1.536,0.443c0.955,0 1.762,-0.273 2.422,-0.82c0.66,-0.547 0.989,-1.358 0.989,-2.435l0,-1.198l-1.719,0.052Z" style="fill:#0d0d0d;fill-rule:nonzero;"/><path d="M202.787,174.819c1.58,0 2.816,0.408 3.71,1.224c0.894,0.816 1.341,2.135 1.341,3.958l0,9.192l-3.281,0l0,-8.541c0,-1.059 -0.208,-1.853 -0.625,-2.383c-0.417,-0.529 -1.076,-0.794 -1.979,-0.794c-1.319,0 -2.222,0.412 -2.708,1.237c-0.486,0.825 -0.729,2.018 -0.729,3.58l0,6.9l-3.281,0l0,-14.113l2.526,0l0.469,1.849l0.182,0c0.312,-0.486 0.694,-0.885 1.146,-1.198c0.451,-0.312 0.955,-0.542 1.51,-0.69c0.555,-0.148 1.128,-0.221 1.719,-0.221Z" style="fill:#0d0d0d;fill-rule:nonzero;"/><rect x="420.809" y="146.155" width="122.871" height="64.318" style="fill:#f5cd00;"/><rect x="420.809" y="146.155" width="122.871" height="64.318" style="fill:none;stroke:#000;stroke-width:1.5px;"/><path d="M443.304,173.957c-0.521,0 -0.984,0.096 -1.388,0.287c-0.404,0.192 -0.747,0.468 -1.029,0.83c-0.282,0.362 -0.495,0.798 -0.638,1.309c-0.144,0.511 -0.215,1.085 -0.215,1.724c0,0.862 0.117,1.599 0.351,2.21c0.234,0.612 0.593,1.083 1.077,1.412c0.484,0.33 1.093,0.495 1.827,0.495c0.489,0 0.96,-0.051 1.412,-0.152c0.452,-0.101 0.928,-0.237 1.428,-0.407l0,1.74c-0.468,0.192 -0.939,0.33 -1.412,0.415c-0.473,0.085 -1.019,0.128 -1.636,0.128c-1.17,0 -2.138,-0.242 -2.905,-0.726c-0.766,-0.484 -1.335,-1.165 -1.708,-2.043c-0.372,-0.878 -0.559,-1.907 -0.559,-3.088c0,-0.862 0.12,-1.649 0.359,-2.362c0.239,-0.713 0.585,-1.33 1.037,-1.851c0.452,-0.521 1.013,-0.926 1.684,-1.213c0.67,-0.287 1.442,-0.431 2.314,-0.431c0.575,0 1.141,0.066 1.7,0.199c0.559,0.133 1.083,0.317 1.572,0.551l-0.702,1.676c-0.404,-0.181 -0.822,-0.343 -1.253,-0.487c-0.431,-0.144 -0.87,-0.215 -1.317,-0.215Z" style="fill:#0d0d0d;fill-rule:nonzero;"/><path d="M456.119,179.447c0,0.723 -0.096,1.362 -0.287,1.915c-0.192,0.553 -0.465,1.024 -0.822,1.412c-0.356,0.388 -0.793,0.681 -1.309,0.878c-0.516,0.197 -1.088,0.295 -1.716,0.295c-0.596,0 -1.144,-0.098 -1.644,-0.295c-0.5,-0.197 -0.934,-0.489 -1.301,-0.878c-0.367,-0.388 -0.652,-0.859 -0.854,-1.412c-0.202,-0.553 -0.303,-1.192 -0.303,-1.915c0,-0.958 0.165,-1.769 0.495,-2.434c0.33,-0.665 0.806,-1.17 1.428,-1.516c0.622,-0.346 1.359,-0.519 2.21,-0.519c0.809,0 1.519,0.173 2.131,0.519c0.612,0.346 1.093,0.851 1.444,1.516c0.351,0.665 0.527,1.476 0.527,2.434Zm-6.176,0c0,0.606 0.072,1.125 0.215,1.556c0.144,0.431 0.367,0.758 0.67,0.982c0.303,0.223 0.694,0.335 1.173,0.335c0.489,0 0.886,-0.112 1.189,-0.335c0.303,-0.223 0.524,-0.551 0.662,-0.982c0.138,-0.431 0.207,-0.95 0.207,-1.556c0,-0.617 -0.072,-1.136 -0.215,-1.556c-0.144,-0.42 -0.367,-0.739 -0.67,-0.958c-0.303,-0.218 -0.694,-0.327 -1.173,-0.327c-0.723,0 -1.247,0.245 -1.572,0.734c-0.324,0.489 -0.487,1.192 -0.487,2.107Z" style="fill:#0d0d0d;fill-rule:nonzero;"/><path d="M462.821,174.978c0.968,0 1.726,0.25 2.274,0.75c0.548,0.5 0.822,1.309 0.822,2.426l0,5.634l-2.011,0l0,-5.235c0,-0.649 -0.128,-1.136 -0.383,-1.46c-0.255,-0.325 -0.66,-0.487 -1.213,-0.487c-0.809,0 -1.362,0.253 -1.66,0.758c-0.298,0.505 -0.447,1.237 -0.447,2.194l0,4.229l-2.011,0l0,-8.65l1.548,0l0.287,1.133l0.112,0c0.192,-0.298 0.426,-0.543 0.702,-0.734c0.277,-0.192 0.585,-0.332 0.926,-0.423c0.34,-0.09 0.692,-0.136 1.053,-0.136Z" style="fill:#0d0d0d;fill-rule:nonzero;"/><path d="M473.067,174.978c0.968,0 1.726,0.25 2.274,0.75c0.548,0.5 0.822,1.309 0.822,2.426l0,5.634l-2.011,0l0,-5.235c0,-0.649 -0.128,-1.136 -0.383,-1.46c-0.255,-0.325 -0.66,-0.487 -1.213,-0.487c-0.809,0 -1.362,0.253 -1.66,0.758c-0.298,0.505 -0.447,1.237 -0.447,2.194l0,4.229l-2.011,0l0,-8.65l1.548,0l0.287,1.133l0.112,0c0.192,-0.298 0.426,-0.543 0.702,-0.734c0.277,-0.192 0.585,-0.332 0.926,-0.423c0.34,-0.09 0.692,-0.136 1.053,-0.136Z" style="fill:#0d0d0d;fill-rule:nonzero;"/><path d="M482.283,174.978c0.777,0 1.444,0.157 2.003,0.471c0.559,0.314 0.992,0.761 1.301,1.341c0.309,0.58 0.463,1.285 0.463,2.115l0,1.021l-5.713,0c0.021,0.787 0.239,1.396 0.654,1.827c0.415,0.431 0.989,0.646 1.724,0.646c0.564,0 1.067,-0.056 1.508,-0.168c0.442,-0.112 0.896,-0.274 1.364,-0.487l0,1.612c-0.426,0.202 -0.867,0.351 -1.325,0.447c-0.457,0.096 -1.005,0.144 -1.644,0.144c-0.84,0 -1.588,-0.162 -2.242,-0.487c-0.654,-0.325 -1.165,-0.817 -1.532,-1.476c-0.367,-0.66 -0.551,-1.479 -0.551,-2.458c0,-0.989 0.168,-1.822 0.503,-2.498c0.335,-0.676 0.801,-1.186 1.396,-1.532c0.596,-0.346 1.293,-0.519 2.091,-0.519Zm0,1.484c-0.532,0 -0.966,0.173 -1.301,0.519c-0.335,0.346 -0.535,0.859 -0.598,1.54l3.718,0c0,-0.404 -0.066,-0.761 -0.199,-1.069c-0.133,-0.309 -0.332,-0.551 -0.598,-0.726c-0.266,-0.176 -0.606,-0.263 -1.021,-0.263Z" style="fill:#0d0d0d;fill-rule:nonzero;"/><path d="M491.452,183.947c-0.819,0 -1.529,-0.157 -2.131,-0.471c-0.601,-0.314 -1.064,-0.798 -1.388,-1.452c-0.324,-0.654 -0.487,-1.492 -0.487,-2.514c0,-1.064 0.178,-1.928 0.535,-2.593c0.356,-0.665 0.848,-1.154 1.476,-1.468c0.628,-0.314 1.346,-0.471 2.154,-0.471c0.543,0 1.027,0.053 1.452,0.16c0.426,0.106 0.787,0.234 1.085,0.383l-0.59,1.58c-0.33,-0.128 -0.66,-0.237 -0.989,-0.327c-0.33,-0.09 -0.649,-0.136 -0.958,-0.136c-0.479,0 -0.875,0.106 -1.189,0.319c-0.314,0.213 -0.545,0.529 -0.694,0.95c-0.149,0.42 -0.223,0.95 -0.223,1.588c0,0.617 0.077,1.133 0.231,1.548c0.154,0.415 0.386,0.726 0.694,0.934c0.309,0.207 0.692,0.311 1.149,0.311c0.489,0 0.92,-0.059 1.293,-0.176c0.372,-0.117 0.723,-0.277 1.053,-0.479l0,1.74c-0.33,0.202 -0.684,0.348 -1.061,0.439c-0.378,0.09 -0.848,0.136 -1.412,0.136Z" style="fill:#0d0d0d;fill-rule:nonzero;"/><path d="M499.423,182.335c0.255,0 0.5,-0.024 0.734,-0.072c0.234,-0.048 0.452,-0.104 0.654,-0.168l0,1.5c-0.213,0.096 -0.489,0.178 -0.83,0.247c-0.34,0.069 -0.697,0.104 -1.069,0.104c-0.489,0 -0.934,-0.082 -1.333,-0.247c-0.399,-0.165 -0.718,-0.45 -0.958,-0.854c-0.239,-0.404 -0.359,-0.968 -0.359,-1.692l0,-4.501l-1.165,0l0,-0.878l1.277,-0.702l0.638,-1.835l1.261,0l0,1.899l2.458,0l0,1.516l-2.458,0l0,4.485c0,0.404 0.106,0.705 0.319,0.902c0.213,0.197 0.489,0.295 0.83,0.295Z" style="fill:#0d0d0d;fill-rule:nonzero;"/><path d="M510.155,179.447c0,0.723 -0.096,1.362 -0.287,1.915c-0.192,0.553 -0.465,1.024 -0.822,1.412c-0.356,0.388 -0.793,0.681 -1.309,0.878c-0.516,0.197 -1.088,0.295 -1.716,0.295c-0.596,0 -1.144,-0.098 -1.644,-0.295c-0.5,-0.197 -0.934,-0.489 -1.301,-0.878c-0.367,-0.388 -0.652,-0.859 -0.854,-1.412c-0.202,-0.553 -0.303,-1.192 -0.303,-1.915c0,-0.958 0.165,-1.769 0.495,-2.434c0.33,-0.665 0.806,-1.17 1.428,-1.516c0.622,-0.346 1.359,-0.519 2.21,-0.519c0.809,0 1.519,0.173 2.131,0.519c0.612,0.346 1.093,0.851 1.444,1.516c0.351,0.665 0.527,1.476 0.527,2.434Zm-6.176,0c0,0.606 0.072,1.125 0.215,1.556c0.144,0.431 0.367,0.758 0.67,0.982c0.303,0.223 0.694,0.335 1.173,0.335c0.489,0 0.886,-0.112 1.189,-0.335c0.303,-0.223 0.524,-0.551 0.662,-0.982c0.138,-0.431 0.207,-0.95 0.207,-1.556c0,-0.617 -0.072,-1.136 -0.215,-1.556c-0.144,-0.42 -0.367,-0.739 -0.67,-0.958c-0.303,-0.218 -0.694,-0.327 -1.173,-0.327c-0.723,0 -1.247,0.245 -1.572,0.734c-0.324,0.489 -0.487,1.192 -0.487,2.107Z" style="fill:#0d0d0d;fill-rule:nonzero;"/><path d="M516.882,174.978c0.128,0 0.277,0.005 0.447,0.016c0.17,0.011 0.314,0.032 0.431,0.064l-0.176,1.867c-0.096,-0.021 -0.221,-0.04 -0.375,-0.056c-0.154,-0.016 -0.29,-0.024 -0.407,-0.024c-0.319,0 -0.625,0.051 -0.918,0.152c-0.293,0.101 -0.553,0.25 -0.782,0.447c-0.229,0.197 -0.41,0.45 -0.543,0.758c-0.133,0.309 -0.199,0.676 -0.199,1.101l0,4.485l-2.011,0l0,-8.65l1.548,0l0.287,1.5l0.096,0c0.17,-0.309 0.383,-0.588 0.638,-0.838c0.255,-0.25 0.551,-0.45 0.886,-0.598c0.335,-0.149 0.694,-0.223 1.077,-0.223Z" style="fill:#0d0d0d;fill-rule:nonzero;"/><path d="M525.245,181.282c0,0.575 -0.138,1.061 -0.415,1.46c-0.277,0.399 -0.684,0.7 -1.221,0.902c-0.537,0.202 -1.194,0.303 -1.971,0.303c-0.606,0 -1.128,-0.043 -1.564,-0.128c-0.436,-0.085 -0.851,-0.218 -1.245,-0.399l0,-1.708c0.426,0.202 0.899,0.372 1.42,0.511c0.521,0.138 1.005,0.207 1.452,0.207c0.553,0 0.952,-0.085 1.197,-0.255c0.245,-0.17 0.367,-0.399 0.367,-0.686c0,-0.17 -0.048,-0.325 -0.144,-0.463c-0.096,-0.138 -0.282,-0.285 -0.559,-0.439c-0.277,-0.154 -0.697,-0.348 -1.261,-0.583c-0.553,-0.223 -1.013,-0.447 -1.38,-0.67c-0.367,-0.223 -0.644,-0.492 -0.83,-0.806c-0.186,-0.314 -0.279,-0.71 -0.279,-1.189c0,-0.777 0.309,-1.365 0.926,-1.764c0.617,-0.399 1.431,-0.598 2.442,-0.598c0.532,0 1.035,0.051 1.508,0.152c0.473,0.101 0.95,0.263 1.428,0.487l-0.638,1.484c-0.394,-0.17 -0.785,-0.314 -1.173,-0.431c-0.388,-0.117 -0.785,-0.176 -1.189,-0.176c-0.436,0 -0.766,0.066 -0.989,0.199c-0.223,0.133 -0.335,0.317 -0.335,0.551c0,0.181 0.056,0.338 0.168,0.471c0.112,0.133 0.309,0.266 0.59,0.399c0.282,0.133 0.684,0.306 1.205,0.519c0.521,0.202 0.966,0.412 1.333,0.63c0.367,0.218 0.652,0.487 0.854,0.806c0.202,0.319 0.303,0.723 0.303,1.213Z" style="fill:#0d0d0d;fill-rule:nonzero;"/><path d="M292.838,175.074l26.698,-26.699l0,13.35l69.475,0l0,-13.35l26.698,26.699l-26.698,26.699l0,-13.35l-69.475,0l0,13.35l-26.698,-26.699Z" style="fill:#92d050;"/><path d="M292.838,175.074l26.698,-26.699l0,13.35l69.475,0l0,-13.35l26.698,26.699l-26.698,26.699l0,-13.35l-69.475,0l0,13.35l-26.698,-26.699Z" style="fill:none;stroke:#00b050;stroke-width:1px;"/><rect x="420.809" y="224.992" width="122.871" height="56.038" style="fill:#ffc000;"/><rect x="420.809" y="224.992" width="122.871" height="56.038" style="fill:none;stroke:#000;stroke-width:1.5px;"/><path d="M448.623,248.975l-2.011,0l0,-11.395l6.463,0l0,1.708l-4.453,0l0,3.351l4.149,0l0,1.708l-4.149,0l0,4.628Z" style="fill:#0d0d0d;fill-rule:nonzero;"/><path d="M457.017,240.325l0,8.65l-2.011,0l0,-8.65l2.011,0Zm-1.005,-3.336c0.298,0 0.559,0.077 0.782,0.231c0.223,0.154 0.335,0.428 0.335,0.822c0,0.383 -0.112,0.657 -0.335,0.822c-0.223,0.165 -0.484,0.247 -0.782,0.247c-0.309,0 -0.572,-0.082 -0.79,-0.247c-0.218,-0.165 -0.327,-0.439 -0.327,-0.822c0,-0.394 0.109,-0.668 0.327,-0.822c0.218,-0.154 0.481,-0.231 0.79,-0.231Z" style="fill:#0d0d0d;fill-rule:nonzero;"/><path d="M464.119,240.165c0.128,0 0.277,0.005 0.447,0.016c0.17,0.011 0.314,0.032 0.431,0.064l-0.176,1.867c-0.096,-0.021 -0.221,-0.04 -0.375,-0.056c-0.154,-0.016 -0.29,-0.024 -0.407,-0.024c-0.319,0 -0.625,0.051 -0.918,0.152c-0.293,0.101 -0.553,0.25 -0.782,0.447c-0.229,0.197 -0.41,0.45 -0.543,0.758c-0.133,0.309 -0.199,0.676 -0.199,1.101l0,4.485l-2.011,0l0,-8.65l1.548,0l0.287,1.5l0.096,0c0.17,-0.309 0.383,-0.588 0.638,-0.838c0.255,-0.25 0.551,-0.45 0.886,-0.598c0.335,-0.149 0.694,-0.223 1.077,-0.223Z" style="fill:#0d0d0d;fill-rule:nonzero;"/><path d="M470.071,240.165c0.777,0 1.444,0.157 2.003,0.471c0.559,0.314 0.992,0.761 1.301,1.341c0.309,0.58 0.463,1.285 0.463,2.115l0,1.021l-5.713,0c0.021,0.787 0.239,1.396 0.654,1.827c0.415,0.431 0.989,0.646 1.724,0.646c0.564,0 1.067,-0.056 1.508,-0.168c0.442,-0.112 0.896,-0.274 1.364,-0.487l0,1.612c-0.426,0.202 -0.867,0.351 -1.325,0.447c-0.457,0.096 -1.005,0.144 -1.644,0.144c-0.84,0 -1.588,-0.162 -2.242,-0.487c-0.654,-0.325 -1.165,-0.817 -1.532,-1.476c-0.367,-0.66 -0.551,-1.479 -0.551,-2.458c0,-0.989 0.168,-1.822 0.503,-2.498c0.335,-0.676 0.801,-1.186 1.396,-1.532c0.596,-0.346 1.293,-0.519 2.091,-0.519Zm0,1.484c-0.532,0 -0.966,0.173 -1.301,0.519c-0.335,0.346 -0.535,0.859 -0.598,1.54l3.718,0c0,-0.404 -0.066,-0.761 -0.199,-1.069c-0.133,-0.309 -0.332,-0.551 -0.598,-0.726c-0.266,-0.176 -0.606,-0.263 -1.021,-0.263Z" style="fill:#0d0d0d;fill-rule:nonzero;"/><path d="M481.993,245.256c-0.053,-0.202 -0.117,-0.455 -0.192,-0.758c-0.074,-0.303 -0.152,-0.62 -0.231,-0.95c-0.08,-0.33 -0.154,-0.633 -0.223,-0.91c-0.069,-0.277 -0.114,-0.489 -0.136,-0.638l-0.064,0c-0.032,0.149 -0.08,0.362 -0.144,0.638c-0.064,0.277 -0.133,0.58 -0.207,0.91c-0.074,0.33 -0.152,0.649 -0.231,0.958c-0.08,0.309 -0.146,0.564 -0.199,0.766l-1.005,3.703l-2.202,0l-2.426,-8.666l2.027,0l1.069,4.133c0.074,0.277 0.146,0.59 0.215,0.942c0.069,0.351 0.13,0.689 0.184,1.013c0.053,0.325 0.09,0.588 0.112,0.79l0.064,0c0.021,-0.138 0.048,-0.322 0.08,-0.551c0.032,-0.229 0.072,-0.468 0.12,-0.718c0.048,-0.25 0.096,-0.481 0.144,-0.694c0.048,-0.213 0.088,-0.378 0.12,-0.495l1.245,-4.421l2.202,0l1.197,4.421c0.053,0.192 0.112,0.442 0.176,0.75c0.064,0.309 0.122,0.617 0.176,0.926c0.053,0.309 0.085,0.564 0.096,0.766l0.064,0c0.021,-0.181 0.059,-0.428 0.112,-0.742c0.053,-0.314 0.117,-0.652 0.192,-1.013c0.074,-0.362 0.154,-0.686 0.239,-0.974l1.085,-4.133l1.995,0l-2.458,8.666l-2.234,0l-0.958,-3.719Z" style="fill:#0d0d0d;fill-rule:nonzero;"/><path d="M492.437,240.165c1.117,0 1.966,0.242 2.545,0.726c0.58,0.484 0.87,1.242 0.87,2.274l0,5.809l-1.42,0l-0.399,-1.197l-0.064,0c-0.245,0.309 -0.497,0.567 -0.758,0.774c-0.261,0.207 -0.559,0.356 -0.894,0.447c-0.335,0.09 -0.742,0.136 -1.221,0.136c-0.511,0 -0.971,-0.096 -1.38,-0.287c-0.41,-0.192 -0.731,-0.487 -0.966,-0.886c-0.234,-0.399 -0.351,-0.902 -0.351,-1.508c0,-0.894 0.327,-1.567 0.981,-2.019c0.654,-0.452 1.646,-0.7 2.976,-0.742l1.5,-0.048l0,-0.431c0,-0.553 -0.133,-0.947 -0.399,-1.181c-0.266,-0.234 -0.638,-0.351 -1.117,-0.351c-0.436,0 -0.856,0.064 -1.261,0.192c-0.404,0.128 -0.798,0.277 -1.181,0.447l-0.638,-1.404c0.426,-0.223 0.912,-0.404 1.46,-0.543c0.548,-0.138 1.12,-0.207 1.716,-0.207Zm0.367,4.756c-0.883,0.032 -1.495,0.184 -1.835,0.455c-0.34,0.271 -0.511,0.636 -0.511,1.093c0,0.404 0.122,0.697 0.367,0.878c0.245,0.181 0.559,0.271 0.942,0.271c0.585,0 1.08,-0.168 1.484,-0.503c0.404,-0.335 0.606,-0.833 0.606,-1.492l0,-0.734l-1.053,0.032Z" style="fill:#0d0d0d;fill-rule:nonzero;"/><rect x="498.494" y="236.845" width="2.011" height="12.129" style="fill:#0d0d0d;fill-rule:nonzero;"/><rect x="502.954" y="236.845" width="2.011" height="12.129" style="fill:#0d0d0d;fill-rule:nonzero;"/><path d="M516.751,237.58l-4.245,11.395l-1.867,0l4.245,-11.395l1.867,0Z" style="fill:#0d0d0d;fill-rule:nonzero;"/><path d="M464.41,256.779c1.479,0 2.556,0.309 3.232,0.926c0.676,0.617 1.013,1.468 1.013,2.554c0,0.489 -0.074,0.955 -0.223,1.396c-0.149,0.442 -0.399,0.838 -0.75,1.189c-0.351,0.351 -0.811,0.628 -1.38,0.83c-0.569,0.202 -1.274,0.303 -2.115,0.303l-1.133,0l0,4.197l-2.043,0l0,-11.395l3.399,0Zm-0.128,1.692l-1.229,0l0,3.814l0.926,0c0.553,0 1.024,-0.066 1.412,-0.199c0.388,-0.133 0.684,-0.343 0.886,-0.63c0.202,-0.287 0.303,-0.66 0.303,-1.117c0,-0.628 -0.186,-1.096 -0.559,-1.404c-0.372,-0.309 -0.952,-0.463 -1.74,-0.463Z" style="fill:#0d0d0d;fill-rule:nonzero;"/><path d="M475.23,259.364c0.128,0 0.277,0.005 0.447,0.016c0.17,0.011 0.314,0.032 0.431,0.064l-0.176,1.867c-0.096,-0.021 -0.221,-0.04 -0.375,-0.056c-0.154,-0.016 -0.29,-0.024 -0.407,-0.024c-0.319,0 -0.625,0.051 -0.918,0.152c-0.293,0.101 -0.553,0.25 -0.782,0.447c-0.229,0.197 -0.41,0.45 -0.543,0.758c-0.133,0.309 -0.199,0.676 -0.199,1.101l0,4.485l-2.011,0l0,-8.65l1.548,0l0.287,1.5l0.096,0c0.17,-0.309 0.383,-0.588 0.638,-0.838c0.255,-0.25 0.551,-0.45 0.886,-0.598c0.335,-0.149 0.694,-0.223 1.077,-0.223Z" style="fill:#0d0d0d;fill-rule:nonzero;"/><path d="M485.428,263.833c0,0.723 -0.096,1.362 -0.287,1.915c-0.192,0.553 -0.465,1.024 -0.822,1.412c-0.356,0.388 -0.793,0.681 -1.309,0.878c-0.516,0.197 -1.088,0.295 -1.716,0.295c-0.596,0 -1.144,-0.098 -1.644,-0.295c-0.5,-0.197 -0.934,-0.489 -1.301,-0.878c-0.367,-0.388 -0.652,-0.859 -0.854,-1.412c-0.202,-0.553 -0.303,-1.192 -0.303,-1.915c0,-0.958 0.165,-1.769 0.495,-2.434c0.33,-0.665 0.806,-1.17 1.428,-1.516c0.622,-0.346 1.359,-0.519 2.21,-0.519c0.809,0 1.519,0.173 2.131,0.519c0.612,0.346 1.093,0.851 1.444,1.516c0.351,0.665 0.527,1.476 0.527,2.434Zm-6.176,0c0,0.606 0.072,1.125 0.215,1.556c0.144,0.431 0.367,0.758 0.67,0.982c0.303,0.223 0.694,0.335 1.173,0.335c0.489,0 0.886,-0.112 1.189,-0.335c0.303,-0.223 0.524,-0.551 0.662,-0.982c0.138,-0.431 0.207,-0.95 0.207,-1.556c0,-0.617 -0.072,-1.136 -0.215,-1.556c-0.144,-0.42 -0.367,-0.739 -0.67,-0.958c-0.303,-0.218 -0.694,-0.327 -1.173,-0.327c-0.723,0 -1.247,0.245 -1.572,0.734c-0.324,0.489 -0.487,1.192 -0.487,2.107Z" style="fill:#0d0d0d;fill-rule:nonzero;"/><path d="M489.37,263.753l-2.857,-4.229l2.282,0l1.883,2.937l1.883,-2.937l2.282,0l-2.889,4.229l3.032,4.421l-2.282,0l-2.027,-3.144l-2.027,3.144l-2.282,0l3,-4.421Z" style="fill:#0d0d0d;fill-rule:nonzero;"/><path d="M495.147,259.524l2.186,0l1.724,4.884c0.074,0.213 0.141,0.418 0.199,0.614c0.059,0.197 0.109,0.396 0.152,0.598c0.043,0.202 0.074,0.404 0.096,0.606l0.064,0c0.043,-0.266 0.109,-0.559 0.199,-0.878c0.09,-0.319 0.184,-0.633 0.279,-0.942l1.66,-4.884l2.17,0l-3.686,9.799c-0.213,0.564 -0.481,1.048 -0.806,1.452c-0.324,0.404 -0.708,0.71 -1.149,0.918c-0.442,0.207 -0.939,0.311 -1.492,0.311c-0.255,0 -0.481,-0.013 -0.678,-0.04c-0.197,-0.027 -0.37,-0.056 -0.519,-0.088l0,-1.596c0.117,0.021 0.258,0.043 0.423,0.064c0.165,0.021 0.338,0.032 0.519,0.032c0.33,0 0.614,-0.066 0.854,-0.199c0.239,-0.133 0.442,-0.317 0.606,-0.551c0.165,-0.234 0.301,-0.495 0.407,-0.782l0.255,-0.702l-3.463,-8.618Z" style="fill:#0d0d0d;fill-rule:nonzero;"/><path d="M296.438,323.808l26.758,-26.759l0,13.38l62.155,0l0,-13.38l26.758,26.759l-26.758,26.759l0,-13.38l-62.155,0l0,13.38l-26.758,-26.759Z" style="fill:#92d050;"/><path d="M296.438,323.808l26.758,-26.759l0,13.38l62.155,0l0,-13.38l26.758,26.759l-26.758,26.759l0,-13.38l-62.155,0l0,13.38l-26.758,-26.759Z" style="fill:none;stroke:#00b050;stroke-width:1px;"/><rect x="420.809" y="294.469" width="122.871" height="56.158" style="fill:#ffc000;"/><rect x="420.809" y="294.469" width="122.871" height="56.158" style="fill:none;stroke:#000;stroke-width:1.5px;"/><path d="M457.1,308.645c-0.521,0 -0.984,0.096 -1.388,0.287c-0.404,0.192 -0.747,0.468 -1.029,0.83c-0.282,0.362 -0.495,0.798 -0.638,1.309c-0.144,0.511 -0.215,1.085 -0.215,1.724c0,0.862 0.117,1.599 0.351,2.21c0.234,0.612 0.593,1.083 1.077,1.412c0.484,0.33 1.093,0.495 1.827,0.495c0.489,0 0.96,-0.051 1.412,-0.152c0.452,-0.101 0.928,-0.237 1.428,-0.407l0,1.74c-0.468,0.192 -0.939,0.33 -1.412,0.415c-0.473,0.085 -1.019,0.128 -1.636,0.128c-1.17,0 -2.138,-0.242 -2.905,-0.726c-0.766,-0.484 -1.335,-1.165 -1.708,-2.043c-0.372,-0.878 -0.559,-1.907 -0.559,-3.088c0,-0.862 0.12,-1.649 0.359,-2.362c0.239,-0.713 0.585,-1.33 1.037,-1.851c0.452,-0.521 1.013,-0.926 1.684,-1.213c0.67,-0.287 1.442,-0.431 2.314,-0.431c0.575,0 1.141,0.066 1.7,0.199c0.559,0.133 1.083,0.317 1.572,0.551l-0.702,1.676c-0.404,-0.181 -0.822,-0.343 -1.253,-0.487c-0.431,-0.144 -0.87,-0.215 -1.317,-0.215Z" style="fill:#0d0d0d;fill-rule:nonzero;"/><path d="M464.202,309.236c0,0.34 -0.013,0.673 -0.04,0.997c-0.027,0.325 -0.051,0.567 -0.072,0.726l0.128,0c0.181,-0.298 0.404,-0.54 0.67,-0.726c0.266,-0.186 0.561,-0.327 0.886,-0.423c0.324,-0.096 0.662,-0.144 1.013,-0.144c0.649,0 1.208,0.112 1.676,0.335c0.468,0.223 0.827,0.567 1.077,1.029c0.25,0.463 0.375,1.067 0.375,1.811l0,5.634l-2.011,0l0,-5.235c0,-0.66 -0.128,-1.149 -0.383,-1.468c-0.255,-0.319 -0.66,-0.479 -1.213,-0.479c-0.532,0 -0.952,0.114 -1.261,0.343c-0.309,0.229 -0.527,0.564 -0.654,1.005c-0.128,0.442 -0.192,0.982 -0.192,1.62l0,4.213l-2.011,0l0,-12.129l2.011,0l0,2.889Z" style="fill:#0d0d0d;fill-rule:nonzero;"/><path d="M476.969,309.666c0.128,0 0.277,0.005 0.447,0.016c0.17,0.011 0.314,0.032 0.431,0.064l-0.176,1.867c-0.096,-0.021 -0.221,-0.04 -0.375,-0.056c-0.154,-0.016 -0.29,-0.024 -0.407,-0.024c-0.319,0 -0.625,0.051 -0.918,0.152c-0.293,0.101 -0.553,0.25 -0.782,0.447c-0.229,0.197 -0.41,0.45 -0.543,0.758c-0.133,0.309 -0.199,0.676 -0.199,1.101l0,4.485l-2.011,0l0,-8.65l1.548,0l0.287,1.5l0.096,0c0.17,-0.309 0.383,-0.588 0.638,-0.838c0.255,-0.25 0.551,-0.45 0.886,-0.598c0.335,-0.149 0.694,-0.223 1.077,-0.223Z" style="fill:#0d0d0d;fill-rule:nonzero;"/><path d="M487.167,314.135c0,0.723 -0.096,1.362 -0.287,1.915c-0.192,0.553 -0.465,1.024 -0.822,1.412c-0.356,0.388 -0.793,0.681 -1.309,0.878c-0.516,0.197 -1.088,0.295 -1.716,0.295c-0.596,0 -1.144,-0.098 -1.644,-0.295c-0.5,-0.197 -0.934,-0.489 -1.301,-0.878c-0.367,-0.388 -0.652,-0.859 -0.854,-1.412c-0.202,-0.553 -0.303,-1.192 -0.303,-1.915c0,-0.958 0.165,-1.769 0.495,-2.434c0.33,-0.665 0.806,-1.17 1.428,-1.516c0.622,-0.346 1.359,-0.519 2.21,-0.519c0.809,0 1.519,0.173 2.131,0.519c0.612,0.346 1.093,0.851 1.444,1.516c0.351,0.665 0.527,1.476 0.527,2.434Zm-6.176,0c0,0.606 0.072,1.125 0.215,1.556c0.144,0.431 0.367,0.758 0.67,0.982c0.303,0.223 0.694,0.335 1.173,0.335c0.489,0 0.886,-0.112 1.189,-0.335c0.303,-0.223 0.524,-0.551 0.662,-0.982c0.138,-0.431 0.207,-0.95 0.207,-1.556c0,-0.617 -0.072,-1.136 -0.215,-1.556c-0.144,-0.42 -0.367,-0.739 -0.67,-0.958c-0.303,-0.218 -0.694,-0.327 -1.173,-0.327c-0.723,0 -1.247,0.245 -1.572,0.734c-0.324,0.489 -0.487,1.192 -0.487,2.107Z" style="fill:#0d0d0d;fill-rule:nonzero;"/><path d="M499.272,309.666c0.979,0 1.716,0.25 2.21,0.75c0.495,0.5 0.742,1.309 0.742,2.426l0,5.634l-2.011,0l0,-5.251c0,-0.638 -0.117,-1.12 -0.351,-1.444c-0.234,-0.325 -0.606,-0.487 -1.117,-0.487c-0.702,0 -1.202,0.229 -1.5,0.686c-0.298,0.458 -0.447,1.122 -0.447,1.995l0,4.501l-2.011,0l0,-5.251c0,-0.426 -0.053,-0.782 -0.16,-1.069c-0.106,-0.287 -0.269,-0.503 -0.487,-0.646c-0.218,-0.144 -0.497,-0.215 -0.838,-0.215c-0.479,0 -0.862,0.114 -1.149,0.343c-0.287,0.229 -0.489,0.561 -0.606,0.997c-0.117,0.436 -0.176,0.974 -0.176,1.612l0,4.229l-2.011,0l0,-8.65l1.548,0l0.287,1.133l0.112,0c0.181,-0.298 0.402,-0.543 0.662,-0.734c0.261,-0.192 0.553,-0.332 0.878,-0.423c0.324,-0.09 0.652,-0.136 0.981,-0.136c0.649,0 1.197,0.109 1.644,0.327c0.447,0.218 0.782,0.556 1.005,1.013l0.16,0c0.266,-0.468 0.641,-0.809 1.125,-1.021c0.484,-0.213 0.987,-0.319 1.508,-0.319Z" style="fill:#0d0d0d;fill-rule:nonzero;"/><path d="M508.105,309.666c0.777,0 1.444,0.157 2.003,0.471c0.559,0.314 0.992,0.761 1.301,1.341c0.309,0.58 0.463,1.285 0.463,2.115l0,1.021l-5.713,0c0.021,0.787 0.239,1.396 0.654,1.827c0.415,0.431 0.989,0.646 1.724,0.646c0.564,0 1.067,-0.056 1.508,-0.168c0.442,-0.112 0.896,-0.274 1.364,-0.487l0,1.612c-0.426,0.202 -0.867,0.351 -1.325,0.447c-0.457,0.096 -1.005,0.144 -1.644,0.144c-0.84,0 -1.588,-0.162 -2.242,-0.487c-0.654,-0.325 -1.165,-0.817 -1.532,-1.476c-0.367,-0.66 -0.551,-1.479 -0.551,-2.458c0,-0.989 0.168,-1.822 0.503,-2.498c0.335,-0.676 0.801,-1.186 1.396,-1.532c0.596,-0.346 1.293,-0.519 2.091,-0.519Zm0,1.484c-0.532,0 -0.966,0.173 -1.301,0.519c-0.335,0.346 -0.535,0.859 -0.598,1.54l3.718,0c0,-0.404 -0.066,-0.761 -0.199,-1.069c-0.133,-0.309 -0.332,-0.551 -0.598,-0.726c-0.266,-0.176 -0.606,-0.263 -1.021,-0.263Z" style="fill:#0d0d0d;fill-rule:nonzero;"/><path d="M460.96,326.28c1.479,0 2.599,0.213 3.359,0.638c0.761,0.426 1.141,1.165 1.141,2.218c0,0.436 -0.074,0.83 -0.223,1.181c-0.149,0.351 -0.364,0.638 -0.646,0.862c-0.282,0.223 -0.63,0.372 -1.045,0.447l0,0.08c0.426,0.074 0.806,0.21 1.141,0.407c0.335,0.197 0.601,0.479 0.798,0.846c0.197,0.367 0.295,0.849 0.295,1.444c0,0.692 -0.165,1.282 -0.495,1.771c-0.33,0.489 -0.801,0.862 -1.412,1.117c-0.612,0.255 -1.338,0.383 -2.178,0.383l-4.165,0l0,-11.395l3.431,0Zm0.271,4.644c0.809,0 1.364,-0.128 1.668,-0.383c0.303,-0.255 0.455,-0.633 0.455,-1.133c0,-0.511 -0.181,-0.878 -0.543,-1.101c-0.362,-0.223 -0.942,-0.335 -1.74,-0.335l-1.5,0l0,2.952l1.66,0Zm-1.66,1.644l0,3.399l1.851,0c0.83,0 1.407,-0.16 1.732,-0.479c0.324,-0.319 0.487,-0.745 0.487,-1.277c0,-0.34 -0.069,-0.633 -0.207,-0.878c-0.138,-0.245 -0.378,-0.434 -0.718,-0.567c-0.34,-0.133 -0.803,-0.199 -1.388,-0.199l-1.755,0Z" style="fill:#0d0d0d;fill-rule:nonzero;"/><path d="M472.466,328.866c0.128,0 0.277,0.005 0.447,0.016c0.17,0.011 0.314,0.032 0.431,0.064l-0.176,1.867c-0.096,-0.021 -0.221,-0.04 -0.375,-0.056c-0.154,-0.016 -0.29,-0.024 -0.407,-0.024c-0.319,0 -0.625,0.051 -0.918,0.152c-0.293,0.101 -0.553,0.25 -0.782,0.447c-0.229,0.197 -0.41,0.45 -0.543,0.758c-0.133,0.309 -0.199,0.676 -0.199,1.101l0,4.485l-2.011,0l0,-8.65l1.548,0l0.287,1.5l0.096,0c0.17,-0.309 0.383,-0.588 0.638,-0.838c0.255,-0.25 0.551,-0.45 0.886,-0.598c0.335,-0.149 0.694,-0.223 1.077,-0.223Z" style="fill:#0d0d0d;fill-rule:nonzero;"/><path d="M477.07,329.025l0,8.65l-2.011,0l0,-8.65l2.011,0Zm-1.005,-3.336c0.298,0 0.559,0.077 0.782,0.231c0.223,0.154 0.335,0.428 0.335,0.822c0,0.383 -0.112,0.657 -0.335,0.822c-0.223,0.165 -0.484,0.247 -0.782,0.247c-0.309,0 -0.572,-0.082 -0.79,-0.247c-0.218,-0.165 -0.327,-0.439 -0.327,-0.822c0,-0.394 0.109,-0.668 0.327,-0.822c0.218,-0.154 0.481,-0.231 0.79,-0.231Z" style="fill:#0d0d0d;fill-rule:nonzero;"/><path d="M482.376,337.835c-1,0 -1.811,-0.375 -2.434,-1.125c-0.622,-0.75 -0.934,-1.865 -0.934,-3.343c0,-1.479 0.314,-2.599 0.942,-3.359c0.628,-0.761 1.452,-1.141 2.474,-1.141c0.426,0 0.801,0.056 1.125,0.168c0.324,0.112 0.604,0.263 0.838,0.455c0.234,0.192 0.431,0.404 0.59,0.638l0.096,0c-0.032,-0.149 -0.064,-0.378 -0.096,-0.686c-0.032,-0.309 -0.048,-0.596 -0.048,-0.862l0,-3.032l2.011,0l0,12.129l-1.564,0l-0.367,-1.133l-0.08,0c-0.16,0.234 -0.356,0.45 -0.59,0.646c-0.234,0.197 -0.511,0.354 -0.83,0.471c-0.319,0.117 -0.697,0.176 -1.133,0.176Zm0.606,-1.628c0.745,0 1.271,-0.213 1.58,-0.638c0.309,-0.426 0.463,-1.069 0.463,-1.931l0,-0.255c0,-0.936 -0.146,-1.649 -0.439,-2.139c-0.293,-0.489 -0.838,-0.734 -1.636,-0.734c-0.606,0 -1.075,0.253 -1.404,0.758c-0.33,0.505 -0.495,1.216 -0.495,2.131c0,0.915 0.165,1.612 0.495,2.091c0.33,0.479 0.809,0.718 1.436,0.718Z" style="fill:#0d0d0d;fill-rule:nonzero;"/><path d="M492.534,328.866c0.543,0 1.032,0.106 1.468,0.319c0.436,0.213 0.803,0.532 1.101,0.958l0.08,0l0.192,-1.117l1.676,0l0,8.714c0,0.819 -0.154,1.508 -0.463,2.067c-0.309,0.559 -0.771,0.982 -1.388,1.269c-0.617,0.287 -1.388,0.431 -2.314,0.431c-0.617,0 -1.186,-0.04 -1.708,-0.12c-0.521,-0.08 -1.016,-0.215 -1.484,-0.407l0,-1.66c0.489,0.213 1.013,0.378 1.572,0.495c0.559,0.117 1.141,0.176 1.747,0.176c0.66,0 1.162,-0.186 1.508,-0.559c0.346,-0.372 0.519,-0.904 0.519,-1.596l0,-0.223c0,-0.16 0.008,-0.346 0.024,-0.559c0.016,-0.213 0.029,-0.383 0.04,-0.511l-0.064,0c-0.298,0.447 -0.66,0.774 -1.085,0.982c-0.426,0.207 -0.915,0.311 -1.468,0.311c-1.053,0 -1.878,-0.394 -2.474,-1.181c-0.596,-0.787 -0.894,-1.883 -0.894,-3.288c0,-1.404 0.303,-2.506 0.91,-3.304c0.606,-0.798 1.442,-1.197 2.506,-1.197Zm0.527,1.644c-0.404,0 -0.747,0.109 -1.029,0.327c-0.282,0.218 -0.495,0.54 -0.638,0.966c-0.144,0.426 -0.215,0.958 -0.215,1.596c0,0.936 0.16,1.644 0.479,2.123c0.319,0.479 0.798,0.718 1.436,0.718c0.362,0 0.67,-0.045 0.926,-0.136c0.255,-0.09 0.465,-0.239 0.63,-0.447c0.165,-0.207 0.29,-0.473 0.375,-0.798c0.085,-0.325 0.128,-0.716 0.128,-1.173l0,-0.303c0,-0.692 -0.074,-1.247 -0.223,-1.668c-0.149,-0.42 -0.375,-0.726 -0.678,-0.918c-0.303,-0.192 -0.7,-0.287 -1.189,-0.287Z" style="fill:#0d0d0d;fill-rule:nonzero;"/><path d="M503.099,328.866c0.777,0 1.444,0.157 2.003,0.471c0.559,0.314 0.992,0.761 1.301,1.341c0.309,0.58 0.463,1.285 0.463,2.115l0,1.021l-5.713,0c0.021,0.787 0.239,1.396 0.654,1.827c0.415,0.431 0.989,0.646 1.724,0.646c0.564,0 1.067,-0.056 1.508,-0.168c0.442,-0.112 0.896,-0.274 1.364,-0.487l0,1.612c-0.426,0.202 -0.867,0.351 -1.325,0.447c-0.457,0.096 -1.005,0.144 -1.644,0.144c-0.84,0 -1.588,-0.162 -2.242,-0.487c-0.654,-0.325 -1.165,-0.817 -1.532,-1.476c-0.367,-0.66 -0.551,-1.479 -0.551,-2.458c0,-0.989 0.168,-1.822 0.503,-2.498c0.335,-0.676 0.801,-1.186 1.396,-1.532c0.596,-0.346 1.293,-0.519 2.091,-0.519Zm0,1.484c-0.532,0 -0.966,0.173 -1.301,0.519c-0.335,0.346 -0.535,0.859 -0.598,1.54l3.718,0c0,-0.404 -0.066,-0.761 -0.199,-1.069c-0.133,-0.309 -0.332,-0.551 -0.598,-0.726c-0.266,-0.176 -0.606,-0.263 -1.021,-0.263Z" style="fill:#0d0d0d;fill-rule:nonzero;"/><rect x="43.677" y="212.512" width="244.182" height="162.954" style="fill:#e59edd;"/><rect x="43.677" y="212.512" width="244.182" height="162.954" style="fill:none;stroke:#000;stroke-width:1.5px;"/><path d="M97.46,286.85c-0.851,0 -1.606,0.156 -2.265,0.469c-0.66,0.312 -1.219,0.764 -1.679,1.354c-0.46,0.59 -0.807,1.302 -1.042,2.135c-0.234,0.833 -0.352,1.771 -0.352,2.812c0,1.406 0.191,2.608 0.573,3.606c0.382,0.998 0.968,1.766 1.758,2.304c0.79,0.538 1.784,0.807 2.981,0.807c0.799,0 1.567,-0.082 2.304,-0.247c0.738,-0.165 1.515,-0.386 2.33,-0.664l0,2.838c-0.764,0.312 -1.532,0.538 -2.304,0.677c-0.772,0.139 -1.662,0.208 -2.669,0.208c-1.909,0 -3.489,-0.395 -4.739,-1.185c-1.25,-0.79 -2.179,-1.901 -2.786,-3.333c-0.608,-1.432 -0.911,-3.112 -0.911,-5.039c0,-1.406 0.195,-2.691 0.586,-3.854c0.391,-1.163 0.955,-2.17 1.692,-3.021c0.738,-0.851 1.653,-1.51 2.747,-1.979c1.094,-0.469 2.352,-0.703 3.776,-0.703c0.937,0 1.862,0.108 2.773,0.325c0.911,0.217 1.766,0.516 2.565,0.898l-1.146,2.734c-0.66,-0.295 -1.341,-0.56 -2.044,-0.794c-0.703,-0.234 -1.419,-0.352 -2.148,-0.352Z" style="fill:#0d0d0d;fill-rule:nonzero;"/><rect x="105.79" y="283.1" width="3.281" height="19.79" style="fill:#0d0d0d;fill-rule:nonzero;"/><path d="M118.887,288.516c1.823,0 3.207,0.395 4.153,1.185c0.946,0.79 1.419,2.027 1.419,3.711l0,9.478l-2.317,0l-0.651,-1.953l-0.104,0c-0.399,0.503 -0.812,0.924 -1.237,1.263c-0.425,0.339 -0.911,0.582 -1.458,0.729c-0.547,0.148 -1.211,0.221 -1.992,0.221c-0.833,0 -1.584,-0.156 -2.252,-0.469c-0.668,-0.312 -1.193,-0.794 -1.575,-1.445c-0.382,-0.651 -0.573,-1.471 -0.573,-2.461c0,-1.458 0.534,-2.556 1.601,-3.294c1.068,-0.738 2.686,-1.141 4.856,-1.211l2.448,-0.078l0,-0.703c0,-0.903 -0.217,-1.545 -0.651,-1.927c-0.434,-0.382 -1.042,-0.573 -1.823,-0.573c-0.712,0 -1.397,0.104 -2.057,0.312c-0.66,0.208 -1.302,0.451 -1.927,0.729l-1.042,-2.291c0.694,-0.365 1.489,-0.66 2.382,-0.885c0.894,-0.226 1.827,-0.339 2.799,-0.339Zm0.599,7.76c-1.441,0.052 -2.439,0.299 -2.994,0.742c-0.555,0.443 -0.833,1.037 -0.833,1.784c0,0.66 0.2,1.137 0.599,1.432c0.399,0.295 0.911,0.443 1.536,0.443c0.955,0 1.762,-0.273 2.422,-0.82c0.66,-0.547 0.989,-1.358 0.989,-2.435l0,-1.198l-1.719,0.052Z" style="fill:#0d0d0d;fill-rule:nonzero;"/><path d="M141.098,288.777l0,14.113l-2.578,0l-0.443,-1.823l-0.156,0c-0.295,0.486 -0.677,0.881 -1.146,1.185c-0.469,0.304 -0.981,0.529 -1.536,0.677c-0.555,0.148 -1.128,0.221 -1.719,0.221c-1.042,0 -1.944,-0.182 -2.708,-0.547c-0.764,-0.365 -1.345,-0.924 -1.745,-1.68c-0.399,-0.755 -0.599,-1.732 -0.599,-2.929l0,-9.218l3.281,0l0,8.567c0,1.042 0.208,1.827 0.625,2.357c0.417,0.529 1.076,0.794 1.979,0.794c0.885,0 1.58,-0.187 2.083,-0.56c0.503,-0.373 0.859,-0.916 1.068,-1.627c0.208,-0.712 0.312,-1.588 0.312,-2.63l0,-6.9l3.281,0Z" style="fill:#0d0d0d;fill-rule:nonzero;"/><path d="M149.951,303.15c-1.632,0 -2.955,-0.612 -3.971,-1.836c-1.015,-1.224 -1.523,-3.042 -1.523,-5.455c0,-2.413 0.512,-4.24 1.536,-5.481c1.024,-1.241 2.369,-1.862 4.036,-1.862c0.694,0 1.306,0.091 1.836,0.273c0.529,0.182 0.985,0.43 1.367,0.742c0.382,0.312 0.703,0.66 0.963,1.042l0.156,0c-0.052,-0.243 -0.104,-0.616 -0.156,-1.12c-0.052,-0.503 -0.078,-0.972 -0.078,-1.406l0,-4.947l3.281,0l0,19.79l-2.552,0l-0.599,-1.849l-0.13,0c-0.26,0.382 -0.582,0.733 -0.963,1.055c-0.382,0.321 -0.833,0.577 -1.354,0.768c-0.521,0.191 -1.137,0.286 -1.849,0.286Zm0.989,-2.656c1.215,0 2.074,-0.347 2.578,-1.042c0.503,-0.694 0.755,-1.745 0.755,-3.151l0,-0.417c0,-1.528 -0.239,-2.691 -0.716,-3.489c-0.477,-0.799 -1.367,-1.198 -2.669,-1.198c-0.989,0 -1.753,0.412 -2.291,1.237c-0.538,0.825 -0.807,1.983 -0.807,3.476c0,1.493 0.269,2.63 0.807,3.411c0.538,0.781 1.319,1.172 2.343,1.172Z" style="fill:#0d0d0d;fill-rule:nonzero;"/><path d="M167.266,288.516c1.267,0 2.356,0.256 3.268,0.768c0.911,0.512 1.619,1.241 2.122,2.187c0.503,0.946 0.755,2.096 0.755,3.45l0,1.667l-9.322,0c0.035,1.285 0.391,2.278 1.068,2.981c0.677,0.703 1.614,1.055 2.812,1.055c0.92,0 1.74,-0.091 2.461,-0.273c0.72,-0.182 1.462,-0.447 2.226,-0.794l0,2.63c-0.694,0.33 -1.415,0.573 -2.161,0.729c-0.746,0.156 -1.64,0.234 -2.682,0.234c-1.371,0 -2.591,-0.265 -3.658,-0.794c-1.068,-0.529 -1.901,-1.332 -2.5,-2.409c-0.599,-1.076 -0.898,-2.413 -0.898,-4.01c0,-1.614 0.273,-2.973 0.82,-4.075c0.547,-1.102 1.306,-1.936 2.278,-2.5c0.972,-0.564 2.109,-0.846 3.411,-0.846Zm0,2.422c-0.868,0 -1.575,0.282 -2.122,0.846c-0.547,0.564 -0.872,1.402 -0.976,2.513l6.067,0c0,-0.66 -0.108,-1.241 -0.325,-1.745c-0.217,-0.503 -0.542,-0.898 -0.976,-1.185c-0.434,-0.286 -0.989,-0.43 -1.666,-0.43Z" style="fill:#0d0d0d;fill-rule:nonzero;"/><path d="M189.19,303.15c-1.337,0 -2.495,-0.256 -3.476,-0.768c-0.981,-0.512 -1.736,-1.302 -2.265,-2.37c-0.529,-1.068 -0.794,-2.435 -0.794,-4.101c0,-1.736 0.291,-3.146 0.872,-4.231c0.582,-1.085 1.384,-1.883 2.409,-2.396c1.024,-0.512 2.196,-0.768 3.515,-0.768c0.885,0 1.675,0.087 2.369,0.26c0.694,0.174 1.285,0.382 1.771,0.625l-0.963,2.578c-0.538,-0.208 -1.076,-0.386 -1.614,-0.534c-0.538,-0.148 -1.059,-0.221 -1.562,-0.221c-0.781,0 -1.428,0.174 -1.94,0.521c-0.512,0.347 -0.89,0.864 -1.133,1.549c-0.243,0.686 -0.365,1.549 -0.365,2.591c0,1.007 0.126,1.849 0.378,2.526c0.252,0.677 0.629,1.185 1.133,1.523c0.503,0.339 1.128,0.508 1.875,0.508c0.799,0 1.502,-0.095 2.109,-0.286c0.608,-0.191 1.18,-0.451 1.719,-0.781l0,2.838c-0.538,0.33 -1.115,0.569 -1.732,0.716c-0.616,0.148 -1.384,0.221 -2.304,0.221Z" style="fill:#0d0d0d;fill-rule:nonzero;"/><path d="M209.015,295.807c0,1.18 -0.156,2.222 -0.469,3.125c-0.312,0.903 -0.759,1.671 -1.341,2.304c-0.582,0.634 -1.293,1.111 -2.135,1.432c-0.842,0.321 -1.775,0.482 -2.799,0.482c-0.972,0 -1.866,-0.161 -2.682,-0.482c-0.816,-0.321 -1.523,-0.799 -2.122,-1.432c-0.599,-0.634 -1.063,-1.402 -1.393,-2.304c-0.33,-0.903 -0.495,-1.944 -0.495,-3.125c0,-1.562 0.269,-2.886 0.807,-3.971c0.538,-1.085 1.315,-1.91 2.33,-2.474c1.015,-0.564 2.218,-0.846 3.606,-0.846c1.319,0 2.478,0.282 3.476,0.846c0.998,0.564 1.784,1.389 2.356,2.474c0.573,1.085 0.859,2.409 0.859,3.971Zm-10.077,0c0,0.989 0.117,1.836 0.352,2.539c0.234,0.703 0.599,1.237 1.094,1.601c0.495,0.365 1.133,0.547 1.914,0.547c0.799,0 1.445,-0.182 1.94,-0.547c0.495,-0.365 0.855,-0.898 1.081,-1.601c0.226,-0.703 0.338,-1.549 0.338,-2.539c0,-1.007 -0.117,-1.853 -0.352,-2.539c-0.234,-0.686 -0.599,-1.206 -1.094,-1.562c-0.495,-0.356 -1.133,-0.534 -1.914,-0.534c-1.18,0 -2.035,0.399 -2.565,1.198c-0.529,0.799 -0.794,1.944 -0.794,3.437Z" style="fill:#0d0d0d;fill-rule:nonzero;"/><path d="M217.181,303.15c-1.632,0 -2.955,-0.612 -3.971,-1.836c-1.015,-1.224 -1.523,-3.042 -1.523,-5.455c0,-2.413 0.512,-4.24 1.536,-5.481c1.024,-1.241 2.369,-1.862 4.036,-1.862c0.694,0 1.306,0.091 1.836,0.273c0.529,0.182 0.985,0.43 1.367,0.742c0.382,0.312 0.703,0.66 0.963,1.042l0.156,0c-0.052,-0.243 -0.104,-0.616 -0.156,-1.12c-0.052,-0.503 -0.078,-0.972 -0.078,-1.406l0,-4.947l3.281,0l0,19.79l-2.552,0l-0.599,-1.849l-0.13,0c-0.26,0.382 -0.582,0.733 -0.963,1.055c-0.382,0.321 -0.833,0.577 -1.354,0.768c-0.521,0.191 -1.137,0.286 -1.849,0.286Zm0.989,-2.656c1.215,0 2.074,-0.347 2.578,-1.042c0.503,-0.694 0.755,-1.745 0.755,-3.151l0,-0.417c0,-1.528 -0.239,-2.691 -0.716,-3.489c-0.477,-0.799 -1.367,-1.198 -2.669,-1.198c-0.989,0 -1.753,0.412 -2.291,1.237c-0.538,0.825 -0.807,1.983 -0.807,3.476c0,1.493 0.269,2.63 0.807,3.411c0.538,0.781 1.319,1.172 2.343,1.172Z" style="fill:#0d0d0d;fill-rule:nonzero;"/><path d="M234.496,288.516c1.267,0 2.356,0.256 3.268,0.768c0.911,0.512 1.619,1.241 2.122,2.187c0.503,0.946 0.755,2.096 0.755,3.45l0,1.667l-9.322,0c0.035,1.285 0.391,2.278 1.068,2.981c0.677,0.703 1.614,1.055 2.812,1.055c0.92,0 1.74,-0.091 2.461,-0.273c0.72,-0.182 1.462,-0.447 2.226,-0.794l0,2.63c-0.694,0.33 -1.415,0.573 -2.161,0.729c-0.746,0.156 -1.64,0.234 -2.682,0.234c-1.371,0 -2.591,-0.265 -3.658,-0.794c-1.068,-0.529 -1.901,-1.332 -2.5,-2.409c-0.599,-1.076 -0.898,-2.413 -0.898,-4.01c0,-1.614 0.273,-2.973 0.82,-4.075c0.547,-1.102 1.306,-1.936 2.278,-2.5c0.972,-0.564 2.109,-0.846 3.411,-0.846Zm0,2.422c-0.868,0 -1.575,0.282 -2.122,0.846c-0.547,0.564 -0.872,1.402 -0.976,2.513l6.067,0c0,-0.66 -0.108,-1.241 -0.325,-1.745c-0.217,-0.503 -0.542,-0.898 -0.976,-1.185c-0.434,-0.286 -0.989,-0.43 -1.666,-0.43Z" style="fill:#0d0d0d;fill-rule:nonzero;"/><rect x="429.448" y="434.504" width="122.871" height="56.158" style="fill:#d9d9d9;"/><rect x="6.959" y="0" width="916.732" height="491.502" style="fill:none;"/><rect x="429.448" y="434.504" width="122.871" height="56.158" style="fill:none;stroke:#000;stroke-width:1.5px;"/><rect x="0" y="0" width="923.691" height="491.502" style="fill:none;"/><path d="M465.745,458.279c-0.521,0 -0.984,0.096 -1.388,0.287c-0.404,0.192 -0.747,0.468 -1.029,0.83c-0.282,0.362 -0.495,0.798 -0.638,1.309c-0.144,0.511 -0.215,1.085 -0.215,1.724c0,0.862 0.117,1.599 0.351,2.21c0.234,0.612 0.593,1.083 1.077,1.412c0.484,0.33 1.093,0.495 1.827,0.495c0.489,0 0.96,-0.051 1.412,-0.152c0.452,-0.101 0.928,-0.237 1.428,-0.407l0,1.74c-0.468,0.192 -0.939,0.33 -1.412,0.415c-0.473,0.085 -1.019,0.128 -1.636,0.128c-1.17,0 -2.138,-0.242 -2.905,-0.726c-0.766,-0.484 -1.335,-1.165 -1.708,-2.043c-0.372,-0.878 -0.559,-1.907 -0.559,-3.088c0,-0.862 0.12,-1.649 0.359,-2.362c0.239,-0.713 0.585,-1.33 1.037,-1.851c0.452,-0.521 1.013,-0.926 1.684,-1.213c0.67,-0.287 1.442,-0.431 2.314,-0.431c0.575,0 1.141,0.066 1.7,0.199c0.559,0.133 1.083,0.317 1.572,0.551l-0.702,1.676c-0.404,-0.181 -0.822,-0.343 -1.253,-0.487c-0.431,-0.144 -0.87,-0.215 -1.317,-0.215Z" style="fill:#0d0d0d;fill-rule:nonzero;"/><path d="M472.847,458.869c0,0.34 -0.013,0.673 -0.04,0.997c-0.027,0.325 -0.051,0.567 -0.072,0.726l0.128,0c0.181,-0.298 0.404,-0.54 0.67,-0.726c0.266,-0.186 0.561,-0.327 0.886,-0.423c0.324,-0.096 0.662,-0.144 1.013,-0.144c0.649,0 1.208,0.112 1.676,0.335c0.468,0.223 0.827,0.567 1.077,1.029c0.25,0.463 0.375,1.067 0.375,1.811l0,5.634l-2.011,0l0,-5.235c0,-0.66 -0.128,-1.149 -0.383,-1.468c-0.255,-0.319 -0.66,-0.479 -1.213,-0.479c-0.532,0 -0.952,0.114 -1.261,0.343c-0.309,0.229 -0.527,0.564 -0.654,1.005c-0.128,0.442 -0.192,0.982 -0.192,1.62l0,4.213l-2.011,0l0,-12.129l2.011,0l0,2.889Z" style="fill:#0d0d0d;fill-rule:nonzero;"/><path d="M485.614,459.3c0.128,0 0.277,0.005 0.447,0.016c0.17,0.011 0.314,0.032 0.431,0.064l-0.176,1.867c-0.096,-0.021 -0.221,-0.04 -0.375,-0.056c-0.154,-0.016 -0.29,-0.024 -0.407,-0.024c-0.319,0 -0.625,0.051 -0.918,0.152c-0.293,0.101 -0.553,0.25 -0.782,0.447c-0.229,0.197 -0.41,0.45 -0.543,0.758c-0.133,0.309 -0.199,0.676 -0.199,1.101l0,4.485l-2.011,0l0,-8.65l1.548,0l0.287,1.5l0.096,0c0.17,-0.309 0.383,-0.588 0.638,-0.838c0.255,-0.25 0.551,-0.45 0.886,-0.598c0.335,-0.149 0.694,-0.223 1.077,-0.223Z" style="fill:#0d0d0d;fill-rule:nonzero;"/><path d="M495.811,463.769c0,0.723 -0.096,1.362 -0.287,1.915c-0.192,0.553 -0.465,1.024 -0.822,1.412c-0.356,0.388 -0.793,0.681 -1.309,0.878c-0.516,0.197 -1.088,0.295 -1.716,0.295c-0.596,0 -1.144,-0.098 -1.644,-0.295c-0.5,-0.197 -0.934,-0.489 -1.301,-0.878c-0.367,-0.388 -0.652,-0.859 -0.854,-1.412c-0.202,-0.553 -0.303,-1.192 -0.303,-1.915c0,-0.958 0.165,-1.769 0.495,-2.434c0.33,-0.665 0.806,-1.17 1.428,-1.516c0.622,-0.346 1.359,-0.519 2.21,-0.519c0.809,0 1.519,0.173 2.131,0.519c0.612,0.346 1.093,0.851 1.444,1.516c0.351,0.665 0.527,1.476 0.527,2.434Zm-6.176,0c0,0.606 0.072,1.125 0.215,1.556c0.144,0.431 0.367,0.758 0.67,0.982c0.303,0.223 0.694,0.335 1.173,0.335c0.489,0 0.886,-0.112 1.189,-0.335c0.303,-0.223 0.524,-0.551 0.662,-0.982c0.138,-0.431 0.207,-0.95 0.207,-1.556c0,-0.617 -0.072,-1.136 -0.215,-1.556c-0.144,-0.42 -0.367,-0.739 -0.67,-0.958c-0.303,-0.218 -0.694,-0.327 -1.173,-0.327c-0.723,0 -1.247,0.245 -1.572,0.734c-0.324,0.489 -0.487,1.192 -0.487,2.107Z" style="fill:#0d0d0d;fill-rule:nonzero;"/><path d="M507.917,459.3c0.979,0 1.716,0.25 2.21,0.75c0.495,0.5 0.742,1.309 0.742,2.426l0,5.634l-2.011,0l0,-5.251c0,-0.638 -0.117,-1.12 -0.351,-1.444c-0.234,-0.325 -0.606,-0.487 -1.117,-0.487c-0.702,0 -1.202,0.229 -1.5,0.686c-0.298,0.458 -0.447,1.122 -0.447,1.995l0,4.501l-2.011,0l0,-5.251c0,-0.426 -0.053,-0.782 -0.16,-1.069c-0.106,-0.287 -0.269,-0.503 -0.487,-0.646c-0.218,-0.144 -0.497,-0.215 -0.838,-0.215c-0.479,0 -0.862,0.114 -1.149,0.343c-0.287,0.229 -0.489,0.561 -0.606,0.997c-0.117,0.436 -0.176,0.974 -0.176,1.612l0,4.229l-2.011,0l0,-8.65l1.548,0l0.287,1.133l0.112,0c0.181,-0.298 0.402,-0.543 0.662,-0.734c0.261,-0.192 0.553,-0.332 0.878,-0.423c0.324,-0.09 0.652,-0.136 0.981,-0.136c0.649,0 1.197,0.109 1.644,0.327c0.447,0.218 0.782,0.556 1.005,1.013l0.16,0c0.266,-0.468 0.641,-0.809 1.125,-1.021c0.484,-0.213 0.987,-0.319 1.508,-0.319Z" style="fill:#0d0d0d;fill-rule:nonzero;"/><path d="M516.749,459.3c0.777,0 1.444,0.157 2.003,0.471c0.559,0.314 0.992,0.761 1.301,1.341c0.309,0.58 0.463,1.285 0.463,2.115l0,1.021l-5.713,0c0.021,0.787 0.239,1.396 0.654,1.827c0.415,0.431 0.989,0.646 1.724,0.646c0.564,0 1.067,-0.056 1.508,-0.168c0.442,-0.112 0.896,-0.274 1.364,-0.487l0,1.612c-0.426,0.202 -0.867,0.351 -1.325,0.447c-0.457,0.096 -1.005,0.144 -1.644,0.144c-0.84,0 -1.588,-0.162 -2.242,-0.487c-0.654,-0.325 -1.165,-0.817 -1.532,-1.476c-0.367,-0.66 -0.551,-1.479 -0.551,-2.458c0,-0.989 0.168,-1.822 0.503,-2.498c0.335,-0.676 0.801,-1.186 1.396,-1.532c0.596,-0.346 1.293,-0.519 2.091,-0.519Zm0,1.484c-0.532,0 -0.966,0.173 -1.301,0.519c-0.335,0.346 -0.535,0.859 -0.598,1.54l3.718,0c0,-0.404 -0.066,-0.761 -0.199,-1.069c-0.133,-0.309 -0.332,-0.551 -0.598,-0.726c-0.266,-0.176 -0.606,-0.263 -1.021,-0.263Z" style="fill:#0d0d0d;fill-rule:nonzero;"/><path d="M482.244,355.247l22.138,22.139l-11.069,0l0,29.639l11.069,0l-22.138,22.139l-22.138,-22.139l11.069,0l0,-29.639l-11.069,0l22.138,-22.139Z" style="fill:#d9d9d9;"/><path d="M482.244,355.247l22.138,22.139l-11.069,0l0,29.639l11.069,0l-22.138,22.139l-22.138,-22.139l11.069,0l0,-29.639l-11.069,0l22.138,-22.139Z" style="fill:none;stroke:#0d0d0d;stroke-width:0.99px;"/><rect x="553.519" y="146.155" width="122.871" height="64.318" style="fill:#f00;"/><rect x="553.519" y="146.155" width="122.871" height="64.318" style="fill:none;stroke:#000;stroke-width:1.5px;"/><path d="M575.777,173.956c-0.521,0 -0.984,0.096 -1.388,0.287c-0.404,0.192 -0.747,0.468 -1.029,0.83c-0.282,0.362 -0.495,0.798 -0.638,1.309c-0.144,0.511 -0.215,1.085 -0.215,1.724c0,0.862 0.117,1.599 0.351,2.21c0.234,0.612 0.593,1.083 1.077,1.412c0.484,0.33 1.093,0.495 1.827,0.495c0.489,0 0.96,-0.051 1.412,-0.152c0.452,-0.101 0.928,-0.237 1.428,-0.407l0,1.74c-0.468,0.192 -0.939,0.33 -1.412,0.415c-0.473,0.085 -1.019,0.128 -1.636,0.128c-1.17,0 -2.138,-0.242 -2.905,-0.726c-0.766,-0.484 -1.335,-1.165 -1.708,-2.043c-0.372,-0.878 -0.559,-1.907 -0.559,-3.088c0,-0.862 0.12,-1.649 0.359,-2.362c0.239,-0.713 0.585,-1.33 1.037,-1.851c0.452,-0.521 1.013,-0.926 1.684,-1.213c0.67,-0.287 1.442,-0.431 2.314,-0.431c0.575,0 1.141,0.066 1.7,0.199c0.559,0.133 1.083,0.317 1.572,0.551l-0.702,1.676c-0.404,-0.181 -0.822,-0.343 -1.253,-0.487c-0.431,-0.144 -0.87,-0.215 -1.317,-0.215Z" style="fill:#fff;fill-rule:nonzero;"/><path d="M585.4,174.978c0.128,0 0.277,0.005 0.447,0.016c0.17,0.011 0.314,0.032 0.431,0.064l-0.176,1.867c-0.096,-0.021 -0.221,-0.04 -0.375,-0.056c-0.154,-0.016 -0.29,-0.024 -0.407,-0.024c-0.319,0 -0.625,0.051 -0.918,0.152c-0.293,0.101 -0.553,0.25 -0.782,0.447c-0.229,0.197 -0.41,0.45 -0.543,0.758c-0.133,0.309 -0.199,0.676 -0.199,1.101l0,4.485l-2.011,0l0,-8.65l1.548,0l0.287,1.5l0.096,0c0.17,-0.309 0.383,-0.588 0.638,-0.838c0.255,-0.25 0.551,-0.45 0.886,-0.598c0.335,-0.149 0.694,-0.223 1.077,-0.223Z" style="fill:#fff;fill-rule:nonzero;"/><path d="M591.353,174.978c0.777,0 1.444,0.157 2.003,0.471c0.559,0.314 0.992,0.761 1.301,1.341c0.309,0.58 0.463,1.285 0.463,2.115l0,1.021l-5.713,0c0.021,0.787 0.239,1.396 0.654,1.827c0.415,0.431 0.989,0.646 1.724,0.646c0.564,0 1.067,-0.056 1.508,-0.168c0.442,-0.112 0.896,-0.274 1.364,-0.487l0,1.612c-0.426,0.202 -0.867,0.351 -1.325,0.447c-0.457,0.096 -1.005,0.144 -1.644,0.144c-0.84,0 -1.588,-0.162 -2.242,-0.487c-0.654,-0.325 -1.165,-0.817 -1.532,-1.476c-0.367,-0.66 -0.551,-1.479 -0.551,-2.458c0,-0.989 0.168,-1.822 0.503,-2.498c0.335,-0.676 0.801,-1.186 1.396,-1.532c0.596,-0.346 1.293,-0.519 2.091,-0.519Zm0,1.484c-0.532,0 -0.966,0.173 -1.301,0.519c-0.335,0.346 -0.535,0.859 -0.598,1.54l3.718,0c0,-0.404 -0.066,-0.761 -0.199,-1.069c-0.133,-0.309 -0.332,-0.551 -0.598,-0.726c-0.266,-0.176 -0.606,-0.263 -1.021,-0.263Z" style="fill:#fff;fill-rule:nonzero;"/><path d="M600.003,183.947c-1,0 -1.811,-0.375 -2.434,-1.125c-0.622,-0.75 -0.934,-1.865 -0.934,-3.343c0,-1.479 0.314,-2.599 0.942,-3.359c0.628,-0.761 1.452,-1.141 2.474,-1.141c0.426,0 0.801,0.056 1.125,0.168c0.324,0.112 0.604,0.263 0.838,0.455c0.234,0.192 0.431,0.404 0.59,0.638l0.096,0c-0.032,-0.149 -0.064,-0.378 -0.096,-0.686c-0.032,-0.309 -0.048,-0.596 -0.048,-0.862l0,-3.032l2.011,0l0,12.129l-1.564,0l-0.367,-1.133l-0.08,0c-0.16,0.234 -0.356,0.45 -0.59,0.646c-0.234,0.197 -0.511,0.354 -0.83,0.471c-0.319,0.117 -0.697,0.176 -1.133,0.176Zm0.606,-1.628c0.745,0 1.271,-0.213 1.58,-0.638c0.309,-0.426 0.463,-1.069 0.463,-1.931l0,-0.255c0,-0.936 -0.146,-1.649 -0.439,-2.139c-0.293,-0.489 -0.838,-0.734 -1.636,-0.734c-0.606,0 -1.075,0.253 -1.404,0.758c-0.33,0.505 -0.495,1.216 -0.495,2.131c0,0.915 0.165,1.612 0.495,2.091c0.33,0.479 0.809,0.718 1.436,0.718Z" style="fill:#fff;fill-rule:nonzero;"/><path d="M610.615,174.978c0.777,0 1.444,0.157 2.003,0.471c0.559,0.314 0.992,0.761 1.301,1.341c0.309,0.58 0.463,1.285 0.463,2.115l0,1.021l-5.713,0c0.021,0.787 0.239,1.396 0.654,1.827c0.415,0.431 0.989,0.646 1.724,0.646c0.564,0 1.067,-0.056 1.508,-0.168c0.442,-0.112 0.896,-0.274 1.364,-0.487l0,1.612c-0.426,0.202 -0.867,0.351 -1.325,0.447c-0.457,0.096 -1.005,0.144 -1.644,0.144c-0.84,0 -1.588,-0.162 -2.242,-0.487c-0.654,-0.325 -1.165,-0.817 -1.532,-1.476c-0.367,-0.66 -0.551,-1.479 -0.551,-2.458c0,-0.989 0.168,-1.822 0.503,-2.498c0.335,-0.676 0.801,-1.186 1.396,-1.532c0.596,-0.346 1.293,-0.519 2.091,-0.519Zm0,1.484c-0.532,0 -0.966,0.173 -1.301,0.519c-0.335,0.346 -0.535,0.859 -0.598,1.54l3.718,0c0,-0.404 -0.066,-0.761 -0.199,-1.069c-0.133,-0.309 -0.332,-0.551 -0.598,-0.726c-0.266,-0.176 -0.606,-0.263 -1.021,-0.263Z" style="fill:#fff;fill-rule:nonzero;"/><path d="M620.916,174.978c0.968,0 1.726,0.25 2.274,0.75c0.548,0.5 0.822,1.309 0.822,2.426l0,5.634l-2.011,0l0,-5.235c0,-0.649 -0.128,-1.136 -0.383,-1.46c-0.255,-0.325 -0.66,-0.487 -1.213,-0.487c-0.809,0 -1.362,0.253 -1.66,0.758c-0.298,0.505 -0.447,1.237 -0.447,2.194l0,4.229l-2.011,0l0,-8.65l1.548,0l0.287,1.133l0.112,0c0.192,-0.298 0.426,-0.543 0.702,-0.734c0.277,-0.192 0.585,-0.332 0.926,-0.423c0.34,-0.09 0.692,-0.136 1.053,-0.136Z" style="fill:#fff;fill-rule:nonzero;"/><path d="M630.005,182.335c0.255,0 0.5,-0.024 0.734,-0.072c0.234,-0.048 0.452,-0.104 0.654,-0.168l0,1.5c-0.213,0.096 -0.489,0.178 -0.83,0.247c-0.34,0.069 -0.697,0.104 -1.069,0.104c-0.489,0 -0.934,-0.082 -1.333,-0.247c-0.399,-0.165 -0.718,-0.45 -0.958,-0.854c-0.239,-0.404 -0.359,-0.968 -0.359,-1.692l0,-4.501l-1.165,0l0,-0.878l1.277,-0.702l0.638,-1.835l1.261,0l0,1.899l2.458,0l0,1.516l-2.458,0l0,4.485c0,0.404 0.106,0.705 0.319,0.902c0.213,0.197 0.489,0.295 0.83,0.295Z" style="fill:#fff;fill-rule:nonzero;"/><path d="M635.144,175.137l0,8.65l-2.011,0l0,-8.65l2.011,0Zm-1.005,-3.336c0.298,0 0.559,0.077 0.782,0.231c0.223,0.154 0.335,0.428 0.335,0.822c0,0.383 -0.112,0.657 -0.335,0.822c-0.223,0.165 -0.484,0.247 -0.782,0.247c-0.309,0 -0.572,-0.082 -0.79,-0.247c-0.218,-0.165 -0.327,-0.439 -0.327,-0.822c0,-0.394 0.109,-0.668 0.327,-0.822c0.218,-0.154 0.481,-0.231 0.79,-0.231Z" style="fill:#fff;fill-rule:nonzero;"/><path d="M641.041,174.978c1.117,0 1.966,0.242 2.545,0.726c0.58,0.484 0.87,1.242 0.87,2.274l0,5.809l-1.42,0l-0.399,-1.197l-0.064,0c-0.245,0.309 -0.497,0.567 -0.758,0.774c-0.261,0.207 -0.559,0.356 -0.894,0.447c-0.335,0.09 -0.742,0.136 -1.221,0.136c-0.511,0 -0.971,-0.096 -1.38,-0.287c-0.41,-0.192 -0.731,-0.487 -0.966,-0.886c-0.234,-0.399 -0.351,-0.902 -0.351,-1.508c0,-0.894 0.327,-1.567 0.981,-2.019c0.654,-0.452 1.646,-0.7 2.976,-0.742l1.5,-0.048l0,-0.431c0,-0.553 -0.133,-0.947 -0.399,-1.181c-0.266,-0.234 -0.638,-0.351 -1.117,-0.351c-0.436,0 -0.856,0.064 -1.261,0.192c-0.404,0.128 -0.798,0.277 -1.181,0.447l-0.638,-1.404c0.426,-0.223 0.912,-0.404 1.46,-0.543c0.548,-0.138 1.12,-0.207 1.716,-0.207Zm0.367,4.756c-0.883,0.032 -1.495,0.184 -1.835,0.455c-0.34,0.271 -0.511,0.636 -0.511,1.093c0,0.404 0.122,0.697 0.367,0.878c0.245,0.181 0.559,0.271 0.942,0.271c0.585,0 1.08,-0.168 1.484,-0.503c0.404,-0.335 0.606,-0.833 0.606,-1.492l0,-0.734l-1.053,0.032Z" style="fill:#fff;fill-rule:nonzero;"/><rect x="646.977" y="171.658" width="2.011" height="12.129" style="fill:#fff;fill-rule:nonzero;"/><path d="M657.446,181.282c0,0.575 -0.138,1.061 -0.415,1.46c-0.277,0.399 -0.684,0.7 -1.221,0.902c-0.537,0.202 -1.194,0.303 -1.971,0.303c-0.606,0 -1.128,-0.043 -1.564,-0.128c-0.436,-0.085 -0.851,-0.218 -1.245,-0.399l0,-1.708c0.426,0.202 0.899,0.372 1.42,0.511c0.521,0.138 1.005,0.207 1.452,0.207c0.553,0 0.952,-0.085 1.197,-0.255c0.245,-0.17 0.367,-0.399 0.367,-0.686c0,-0.17 -0.048,-0.325 -0.144,-0.463c-0.096,-0.138 -0.282,-0.285 -0.559,-0.439c-0.277,-0.154 -0.697,-0.348 -1.261,-0.583c-0.553,-0.223 -1.013,-0.447 -1.38,-0.67c-0.367,-0.223 -0.644,-0.492 -0.83,-0.806c-0.186,-0.314 -0.279,-0.71 -0.279,-1.189c0,-0.777 0.309,-1.365 0.926,-1.764c0.617,-0.399 1.431,-0.598 2.442,-0.598c0.532,0 1.035,0.051 1.508,0.152c0.473,0.101 0.95,0.263 1.428,0.487l-0.638,1.484c-0.394,-0.17 -0.785,-0.314 -1.173,-0.431c-0.388,-0.117 -0.785,-0.176 -1.189,-0.176c-0.436,0 -0.766,0.066 -0.989,0.199c-0.223,0.133 -0.335,0.317 -0.335,0.551c0,0.181 0.056,0.338 0.168,0.471c0.112,0.133 0.309,0.266 0.59,0.399c0.282,0.133 0.684,0.306 1.205,0.519c0.521,0.202 0.966,0.412 1.333,0.63c0.367,0.218 0.652,0.487 0.854,0.806c0.202,0.319 0.303,0.723 0.303,1.213Z" style="fill:#fff;fill-rule:nonzero;"/><path d="M296.078,255.591l26.698,-26.699l0,13.35l62.395,0l0,-13.35l26.698,26.699l-26.698,26.699l0,-13.35l-62.395,0l0,13.35l-26.698,-26.699Z" style="fill:#92d050;"/><path d="M296.078,255.591l26.698,-26.699l0,13.35l62.395,0l0,-13.35l26.698,26.699l-26.698,26.699l0,-13.35l-62.395,0l0,13.35l-26.698,-26.699Z" style="fill:none;stroke:#00b050;stroke-width:1px;"/><rect x="6.959" y="0" width="916.732" height="491.502" style="fill:none;"/><path d="M761.913,228.922c-2.04,-18.599 8.579,-35.759 23.728,-38.279c6.12,-1.02 12.359,0.51 17.729,4.35c5.64,-13.11 18.899,-18.089 29.548,-11.13c1.86,1.23 3.57,2.76 5.07,4.59c4.44,-10.89 15.179,-15.299 24.028,-9.87c2.43,1.5 4.56,3.66 6.24,6.33c7.109,-10.26 19.679,-11.55 28.048,-2.82c3.54,3.66 5.91,8.7 6.719,14.279c11.669,3.9 18.539,18.689 15.359,33.029c-0.27,1.23 -0.6,2.4 -0.99,3.54c9.329,14.939 7.049,36.359 -5.13,47.848c-3.78,3.57 -8.249,5.88 -12.989,6.72c-0.09,16.049 -10.799,28.979 -23.908,28.859c-4.35,-0.03 -8.639,-1.56 -12.359,-4.41c-4.44,18.029 -19.889,28.199 -34.497,22.739c-6.15,-2.28 -11.459,-7.11 -14.999,-13.68c-14.999,11.1 -34.437,5.13 -43.437,-13.32c-0.12,-0.24 -0.24,-0.48 -0.33,-0.72c-9.809,1.41 -18.689,-7.17 -19.829,-19.199c-0.63,-6.39 1.08,-12.81 4.68,-17.519c-8.489,-6.12 -11.339,-19.589 -6.36,-30.089c2.88,-6.03 7.889,-10.05 13.529,-10.77" style="fill:#d9d9d9;"/><path d="M761.913,228.922c-2.04,-18.599 8.579,-35.759 23.728,-38.279c6.12,-1.02 12.359,0.51 17.729,4.35c5.64,-13.11 18.899,-18.089 29.548,-11.13c1.86,1.23 3.57,2.76 5.07,4.59c4.44,-10.89 15.179,-15.299 24.028,-9.87c2.43,1.5 4.56,3.66 6.24,6.33c7.109,-10.26 19.679,-11.55 28.048,-2.82c3.54,3.66 5.91,8.7 6.719,14.279c11.669,3.9 18.539,18.689 15.359,33.029c-0.27,1.23 -0.6,2.4 -0.99,3.54c9.329,14.939 7.049,36.359 -5.13,47.848c-3.78,3.57 -8.249,5.88 -12.989,6.72c-0.09,16.049 -10.799,28.979 -23.908,28.859c-4.35,-0.03 -8.639,-1.56 -12.359,-4.41c-4.44,18.029 -19.889,28.199 -34.497,22.739c-6.15,-2.28 -11.459,-7.11 -14.999,-13.68c-14.999,11.1 -34.437,5.13 -43.437,-13.32c-0.12,-0.24 -0.24,-0.48 -0.33,-0.72c-9.809,1.41 -18.689,-7.17 -19.829,-19.199c-0.63,-6.39 1.08,-12.81 4.68,-17.519c-8.489,-6.12 -11.339,-19.589 -6.36,-30.089c2.88,-6.03 7.889,-10.05 13.529,-10.77l0.15,-0.48Z" style="fill:none;stroke:#000;stroke-width:0.99px;"/><path d="M765.183,272.6c-3.63,0.36 -7.259,-0.69 -10.379,-2.94m19.529,35.219c-1.44,0.69 -2.97,1.17 -4.53,1.41m43.677,14.099c-1.08,-2.04 -2.01,-4.2 -2.73,-6.45m53.366,-9.63c-0.15,2.4 -0.51,4.77 -1.08,7.08m22.828,-50.728c8.219,4.92 13.409,15.209 13.319,26.429m18.119,-54.538c-1.35,3.81 -3.36,7.2 -5.94,9.9m-8.309,-46.618c0.24,1.53 0.33,3.09 0.33,4.68m-38.247,-10.14c0.78,-2.16 1.8,-4.17 3.06,-5.97m-31.498,8.82c0.33,-1.8 0.81,-3.51 1.47,-5.16m-34.827,6.9c1.92,1.38 3.72,3.06 5.31,4.98m-45.807,34.229c-0.42,-1.71 -0.72,-3.48 -0.93,-5.25" style="fill:none;stroke:#000;stroke-width:0.99px;"/><rect x="0" y="0" width="923.691" height="491.502" style="fill:none;"/><path d="M796.355,258.095l-5.4,0l0,-1.314l1.548,-0.576l0,-9.054l-1.548,-0.594l0,-1.314l5.4,0l0,1.314l-1.548,0.594l0,9.054l1.548,0.576l0,1.314Z" style="fill-rule:nonzero;"/><path d="M803.662,248.16c1.092,0 1.947,0.282 2.565,0.846c0.618,0.564 0.927,1.476 0.927,2.736l0,6.354l-2.268,0l0,-5.904c0,-0.732 -0.144,-1.281 -0.432,-1.647c-0.288,-0.366 -0.744,-0.549 -1.368,-0.549c-0.912,0 -1.536,0.285 -1.872,0.855c-0.336,0.57 -0.504,1.395 -0.504,2.475l0,4.77l-2.268,0l0,-9.756l1.746,0l0.324,1.278l0.126,0c0.216,-0.336 0.48,-0.612 0.792,-0.828c0.312,-0.216 0.66,-0.375 1.044,-0.477c0.384,-0.102 0.78,-0.153 1.188,-0.153Z" style="fill-rule:nonzero;"/><path d="M813.778,256.458c0.288,0 0.564,-0.027 0.828,-0.081c0.264,-0.054 0.51,-0.117 0.738,-0.189l0,1.692c-0.24,0.108 -0.552,0.201 -0.936,0.279c-0.384,0.078 -0.786,0.117 -1.206,0.117c-0.552,0 -1.053,-0.093 -1.503,-0.279c-0.45,-0.186 -0.81,-0.507 -1.08,-0.963c-0.27,-0.456 -0.405,-1.092 -0.405,-1.908l0,-5.076l-1.314,0l0,-0.99l1.44,-0.792l0.72,-2.07l1.422,0l0,2.142l2.772,0l0,1.71l-2.772,0l0,5.058c0,0.456 0.12,0.795 0.36,1.017c0.24,0.222 0.552,0.333 0.936,0.333Z" style="fill-rule:nonzero;"/><path d="M821.229,248.16c0.876,0 1.629,0.177 2.259,0.531c0.63,0.354 1.119,0.858 1.467,1.512c0.348,0.654 0.522,1.449 0.522,2.385l0,1.152l-6.444,0c0.024,0.888 0.27,1.575 0.738,2.061c0.468,0.486 1.116,0.729 1.944,0.729c0.636,0 1.203,-0.063 1.701,-0.189c0.498,-0.126 1.011,-0.309 1.539,-0.549l0,1.818c-0.48,0.228 -0.978,0.396 -1.494,0.504c-0.516,0.108 -1.134,0.162 -1.854,0.162c-0.948,0 -1.791,-0.183 -2.529,-0.549c-0.738,-0.366 -1.314,-0.921 -1.728,-1.665c-0.414,-0.744 -0.621,-1.668 -0.621,-2.772c0,-1.116 0.189,-2.055 0.567,-2.817c0.378,-0.762 0.903,-1.338 1.575,-1.728c0.672,-0.39 1.458,-0.585 2.358,-0.585Zm0,1.674c-0.6,0 -1.089,0.195 -1.467,0.585c-0.378,0.39 -0.603,0.969 -0.675,1.737l4.194,0c0,-0.456 -0.075,-0.858 -0.225,-1.206c-0.15,-0.348 -0.375,-0.621 -0.675,-0.819c-0.3,-0.198 -0.684,-0.297 -1.152,-0.297Z" style="fill-rule:nonzero;"/><path d="M832.874,248.16c0.144,0 0.312,0.006 0.504,0.018c0.192,0.012 0.354,0.036 0.486,0.072l-0.198,2.106c-0.108,-0.024 -0.249,-0.045 -0.423,-0.063c-0.174,-0.018 -0.327,-0.027 -0.459,-0.027c-0.36,0 -0.705,0.057 -1.035,0.171c-0.33,0.114 -0.624,0.282 -0.882,0.504c-0.258,0.222 -0.462,0.507 -0.612,0.855c-0.15,0.348 -0.225,0.762 -0.225,1.242l0,5.058l-2.268,0l0,-9.756l1.746,0l0.324,1.692l0.108,0c0.192,-0.348 0.432,-0.663 0.72,-0.945c0.288,-0.282 0.621,-0.507 0.999,-0.675c0.378,-0.168 0.783,-0.252 1.215,-0.252Z" style="fill-rule:nonzero;"/><path d="M840.884,248.16c1.092,0 1.947,0.282 2.565,0.846c0.618,0.564 0.927,1.476 0.927,2.736l0,6.354l-2.268,0l0,-5.904c0,-0.732 -0.144,-1.281 -0.432,-1.647c-0.288,-0.366 -0.744,-0.549 -1.368,-0.549c-0.912,0 -1.536,0.285 -1.872,0.855c-0.336,0.57 -0.504,1.395 -0.504,2.475l0,4.77l-2.268,0l0,-9.756l1.746,0l0.324,1.278l0.126,0c0.216,-0.336 0.48,-0.612 0.792,-0.828c0.312,-0.216 0.66,-0.375 1.044,-0.477c0.384,-0.102 0.78,-0.153 1.188,-0.153Z" style="fill-rule:nonzero;"/><path d="M851.023,248.16c0.876,0 1.629,0.177 2.259,0.531c0.63,0.354 1.119,0.858 1.467,1.512c0.348,0.654 0.522,1.449 0.522,2.385l0,1.152l-6.444,0c0.024,0.888 0.27,1.575 0.738,2.061c0.468,0.486 1.116,0.729 1.944,0.729c0.636,0 1.203,-0.063 1.701,-0.189c0.498,-0.126 1.011,-0.309 1.539,-0.549l0,1.818c-0.48,0.228 -0.978,0.396 -1.494,0.504c-0.516,0.108 -1.134,0.162 -1.854,0.162c-0.948,0 -1.791,-0.183 -2.529,-0.549c-0.738,-0.366 -1.314,-0.921 -1.728,-1.665c-0.414,-0.744 -0.621,-1.668 -0.621,-2.772c0,-1.116 0.189,-2.055 0.567,-2.817c0.378,-0.762 0.903,-1.338 1.575,-1.728c0.672,-0.39 1.458,-0.585 2.358,-0.585Zm0,1.674c-0.6,0 -1.089,0.195 -1.467,0.585c-0.378,0.39 -0.603,0.969 -0.675,1.737l4.194,0c0,-0.456 -0.075,-0.858 -0.225,-1.206c-0.15,-0.348 -0.375,-0.621 -0.675,-0.819c-0.3,-0.198 -0.684,-0.297 -1.152,-0.297Z" style="fill-rule:nonzero;"/><path d="M861.336,256.458c0.288,0 0.564,-0.027 0.828,-0.081c0.264,-0.054 0.51,-0.117 0.738,-0.189l0,1.692c-0.24,0.108 -0.552,0.201 -0.936,0.279c-0.384,0.078 -0.786,0.117 -1.206,0.117c-0.552,0 -1.053,-0.093 -1.503,-0.279c-0.45,-0.186 -0.81,-0.507 -1.08,-0.963c-0.27,-0.456 -0.405,-1.092 -0.405,-1.908l0,-5.076l-1.314,0l0,-0.99l1.44,-0.792l0.72,-2.07l1.422,0l0,2.142l2.772,0l0,1.71l-2.772,0l0,5.058c0,0.456 0.12,0.795 0.36,1.017c0.24,0.222 0.552,0.333 0.936,0.333Z" style="fill-rule:nonzero;"/><path d="M548.059,252.951l22.138,-22.139l0,11.07l144.829,0l0,-11.07l22.138,22.139l-22.138,22.139l0,-11.07l-144.829,0l0,11.07l-22.138,-22.139Z" style="fill:#d9d9d9;"/><path d="M548.059,252.951l22.138,-22.139l0,11.07l144.829,0l0,-11.07l22.138,22.139l-22.138,22.139l0,-11.07l-144.829,0l0,11.07l-22.138,-22.139Z" style="fill:none;stroke:#0d0d0d;stroke-width:0.99px;"/><rect x="415.769" y="0.72" width="122.871" height="56.038" style="fill:#d9d9d9;"/><rect x="6.959" y="0" width="916.732" height="491.502" style="fill:none;"/><clipPath id="_clip1"><rect x="6.959" y="0" width="916.732" height="491.502"/></clipPath><g clip-path="url(#_clip1)"><rect x="415.769" y="0.72" width="122.871" height="56.038" style="fill:none;stroke:#000;stroke-width:1.5px;"/></g><rect x="0" y="0" width="923.691" height="491.502" style="fill:none;"/><path d="M433.143,24.615l0,-11.395l2.043,0l0,9.671l4.756,0l0,1.724l-6.798,0Z" style="fill:#0d0d0d;fill-rule:nonzero;"/><path d="M443.739,15.965l0,8.65l-2.011,0l0,-8.65l2.011,0Zm-1.005,-3.336c0.298,0 0.559,0.077 0.782,0.231c0.223,0.154 0.335,0.428 0.335,0.822c0,0.383 -0.112,0.657 -0.335,0.822c-0.223,0.165 -0.484,0.247 -0.782,0.247c-0.309,0 -0.572,-0.082 -0.79,-0.247c-0.218,-0.165 -0.327,-0.439 -0.327,-0.822c0,-0.394 0.109,-0.668 0.327,-0.822c0.218,-0.154 0.481,-0.231 0.79,-0.231Z" style="fill:#0d0d0d;fill-rule:nonzero;"/><path d="M450.937,15.805c0.968,0 1.726,0.25 2.274,0.75c0.548,0.5 0.822,1.309 0.822,2.426l0,5.634l-2.011,0l0,-5.235c0,-0.649 -0.128,-1.136 -0.383,-1.46c-0.255,-0.325 -0.66,-0.487 -1.213,-0.487c-0.809,0 -1.362,0.253 -1.66,0.758c-0.298,0.505 -0.447,1.237 -0.447,2.194l0,4.229l-2.011,0l0,-8.65l1.548,0l0.287,1.133l0.112,0c0.192,-0.298 0.426,-0.543 0.702,-0.734c0.277,-0.192 0.585,-0.332 0.926,-0.423c0.34,-0.09 0.692,-0.136 1.053,-0.136Z" style="fill:#0d0d0d;fill-rule:nonzero;"/><path d="M460.033,15.805c0.777,0 1.444,0.157 2.003,0.471c0.559,0.314 0.992,0.761 1.301,1.341c0.309,0.58 0.463,1.285 0.463,2.115l0,1.021l-5.713,0c0.021,0.787 0.239,1.396 0.654,1.827c0.415,0.431 0.989,0.646 1.724,0.646c0.564,0 1.067,-0.056 1.508,-0.168c0.442,-0.112 0.896,-0.274 1.364,-0.487l0,1.612c-0.426,0.202 -0.867,0.351 -1.325,0.447c-0.457,0.096 -1.005,0.144 -1.644,0.144c-0.84,0 -1.588,-0.162 -2.242,-0.487c-0.654,-0.325 -1.165,-0.817 -1.532,-1.476c-0.367,-0.66 -0.551,-1.479 -0.551,-2.458c0,-0.989 0.168,-1.822 0.503,-2.498c0.335,-0.676 0.801,-1.186 1.396,-1.532c0.596,-0.346 1.293,-0.519 2.091,-0.519Zm0,1.484c-0.532,0 -0.966,0.173 -1.301,0.519c-0.335,0.346 -0.535,0.859 -0.598,1.54l3.718,0c0,-0.404 -0.066,-0.761 -0.199,-1.069c-0.133,-0.309 -0.332,-0.551 -0.598,-0.726c-0.266,-0.176 -0.606,-0.263 -1.021,-0.263Z" style="fill:#0d0d0d;fill-rule:nonzero;"/><path d="M469.273,15.805c1.117,0 1.966,0.242 2.545,0.726c0.58,0.484 0.87,1.242 0.87,2.274l0,5.809l-1.42,0l-0.399,-1.197l-0.064,0c-0.245,0.309 -0.497,0.567 -0.758,0.774c-0.261,0.207 -0.559,0.356 -0.894,0.447c-0.335,0.09 -0.742,0.136 -1.221,0.136c-0.511,0 -0.971,-0.096 -1.38,-0.287c-0.41,-0.192 -0.731,-0.487 -0.966,-0.886c-0.234,-0.399 -0.351,-0.902 -0.351,-1.508c0,-0.894 0.327,-1.567 0.981,-2.019c0.654,-0.452 1.646,-0.7 2.976,-0.742l1.5,-0.048l0,-0.431c0,-0.553 -0.133,-0.947 -0.399,-1.181c-0.266,-0.234 -0.638,-0.351 -1.117,-0.351c-0.436,0 -0.856,0.064 -1.261,0.192c-0.404,0.128 -0.798,0.277 -1.181,0.447l-0.638,-1.404c0.426,-0.223 0.912,-0.404 1.46,-0.543c0.548,-0.138 1.12,-0.207 1.716,-0.207Zm0.367,4.756c-0.883,0.032 -1.495,0.184 -1.835,0.455c-0.34,0.271 -0.511,0.636 -0.511,1.093c0,0.404 0.122,0.697 0.367,0.878c0.245,0.181 0.559,0.271 0.942,0.271c0.585,0 1.08,-0.168 1.484,-0.503c0.404,-0.335 0.606,-0.833 0.606,-1.492l0,-0.734l-1.053,0.032Z" style="fill:#0d0d0d;fill-rule:nonzero;"/><path d="M479.742,15.805c0.128,0 0.277,0.005 0.447,0.016c0.17,0.011 0.314,0.032 0.431,0.064l-0.176,1.867c-0.096,-0.021 -0.221,-0.04 -0.375,-0.056c-0.154,-0.016 -0.29,-0.024 -0.407,-0.024c-0.319,0 -0.625,0.051 -0.918,0.152c-0.293,0.101 -0.553,0.25 -0.782,0.447c-0.229,0.197 -0.41,0.45 -0.543,0.758c-0.133,0.309 -0.199,0.676 -0.199,1.101l0,4.485l-2.011,0l0,-8.65l1.548,0l0.287,1.5l0.096,0c0.17,-0.309 0.383,-0.588 0.638,-0.838c0.255,-0.25 0.551,-0.45 0.886,-0.598c0.335,-0.149 0.694,-0.223 1.077,-0.223Z" style="fill:#0d0d0d;fill-rule:nonzero;"/><path d="M484.306,22.939c-0.096,0.372 -0.218,0.774 -0.367,1.205c-0.149,0.431 -0.309,0.862 -0.479,1.293c-0.17,0.431 -0.346,0.843 -0.527,1.237l-1.452,0c0.106,-0.415 0.207,-0.854 0.303,-1.317c0.096,-0.463 0.186,-0.918 0.271,-1.365c0.085,-0.447 0.154,-0.856 0.207,-1.229l1.931,0l0.112,0.176Z" style="fill:#0d0d0d;fill-rule:nonzero;"/><path d="M489.653,27.838c-0.298,0 -0.553,-0.019 -0.766,-0.056c-0.213,-0.037 -0.404,-0.077 -0.575,-0.12l0,-1.708c0.17,0.043 0.351,0.08 0.543,0.112c0.192,0.032 0.394,0.048 0.606,0.048c0.266,0 0.516,-0.053 0.75,-0.16c0.234,-0.106 0.42,-0.303 0.559,-0.59c0.138,-0.287 0.207,-0.697 0.207,-1.229l0,-10.916l2.043,0l0,10.868c0,0.894 -0.141,1.615 -0.423,2.163c-0.282,0.548 -0.676,0.95 -1.181,1.205c-0.505,0.255 -1.093,0.383 -1.763,0.383Z" style="fill:#0d0d0d;fill-rule:nonzero;"/><path d="M497.76,15.965l0,8.65l-2.011,0l0,-8.65l2.011,0Zm-1.005,-3.336c0.298,0 0.559,0.077 0.782,0.231c0.223,0.154 0.335,0.428 0.335,0.822c0,0.383 -0.112,0.657 -0.335,0.822c-0.223,0.165 -0.484,0.247 -0.782,0.247c-0.309,0 -0.572,-0.082 -0.79,-0.247c-0.218,-0.165 -0.327,-0.439 -0.327,-0.822c0,-0.394 0.109,-0.668 0.327,-0.822c0.218,-0.154 0.481,-0.231 0.79,-0.231Z" style="fill:#0d0d0d;fill-rule:nonzero;"/><path d="M504.741,15.805c0.128,0 0.277,0.005 0.447,0.016c0.17,0.011 0.314,0.032 0.431,0.064l-0.176,1.867c-0.096,-0.021 -0.221,-0.04 -0.375,-0.056c-0.154,-0.016 -0.29,-0.024 -0.407,-0.024c-0.319,0 -0.625,0.051 -0.918,0.152c-0.293,0.101 -0.553,0.25 -0.782,0.447c-0.229,0.197 -0.41,0.45 -0.543,0.758c-0.133,0.309 -0.199,0.676 -0.199,1.101l0,4.485l-2.011,0l0,-8.65l1.548,0l0.287,1.5l0.096,0c0.17,-0.309 0.383,-0.588 0.638,-0.838c0.255,-0.25 0.551,-0.45 0.886,-0.598c0.335,-0.149 0.694,-0.223 1.077,-0.223Z" style="fill:#0d0d0d;fill-rule:nonzero;"/><path d="M510.782,15.805c1.117,0 1.966,0.242 2.545,0.726c0.58,0.484 0.87,1.242 0.87,2.274l0,5.809l-1.42,0l-0.399,-1.197l-0.064,0c-0.245,0.309 -0.497,0.567 -0.758,0.774c-0.261,0.207 -0.559,0.356 -0.894,0.447c-0.335,0.09 -0.742,0.136 -1.221,0.136c-0.511,0 -0.971,-0.096 -1.38,-0.287c-0.41,-0.192 -0.731,-0.487 -0.966,-0.886c-0.234,-0.399 -0.351,-0.902 -0.351,-1.508c0,-0.894 0.327,-1.567 0.981,-2.019c0.654,-0.452 1.646,-0.7 2.976,-0.742l1.5,-0.048l0,-0.431c0,-0.553 -0.133,-0.947 -0.399,-1.181c-0.266,-0.234 -0.638,-0.351 -1.117,-0.351c-0.436,0 -0.856,0.064 -1.261,0.192c-0.404,0.128 -0.798,0.277 -1.181,0.447l-0.638,-1.404c0.426,-0.223 0.912,-0.404 1.46,-0.543c0.548,-0.138 1.12,-0.207 1.716,-0.207Zm0.367,4.756c-0.883,0.032 -1.495,0.184 -1.835,0.455c-0.34,0.271 -0.511,0.636 -0.511,1.093c0,0.404 0.122,0.697 0.367,0.878c0.245,0.181 0.559,0.271 0.942,0.271c0.585,0 1.08,-0.168 1.484,-0.503c0.404,-0.335 0.606,-0.833 0.606,-1.492l0,-0.734l-1.053,0.032Z" style="fill:#0d0d0d;fill-rule:nonzero;"/><path d="M518.809,22.939c-0.096,0.372 -0.218,0.774 -0.367,1.205c-0.149,0.431 -0.309,0.862 -0.479,1.293c-0.17,0.431 -0.346,0.843 -0.527,1.237l-1.452,0c0.106,-0.415 0.207,-0.854 0.303,-1.317c0.096,-0.463 0.186,-0.918 0.271,-1.365c0.085,-0.447 0.154,-0.856 0.207,-1.229l1.931,0l0.112,0.176Z" style="fill:#0d0d0d;fill-rule:nonzero;"/><path d="M471.301,42.793c0,-0.447 0.117,-0.763 0.351,-0.95c0.234,-0.186 0.521,-0.279 0.862,-0.279c0.34,0 0.63,0.09 0.87,0.271c0.239,0.181 0.359,0.5 0.359,0.958c0,0.436 -0.12,0.75 -0.359,0.942c-0.239,0.192 -0.529,0.287 -0.87,0.287c-0.34,0 -0.628,-0.096 -0.862,-0.287c-0.234,-0.192 -0.351,-0.505 -0.351,-0.942Zm4.405,0c0,-0.447 0.117,-0.763 0.351,-0.95c0.234,-0.186 0.521,-0.279 0.862,-0.279c0.34,0 0.63,0.09 0.87,0.271c0.239,0.181 0.359,0.5 0.359,0.958c0,0.436 -0.12,0.75 -0.359,0.942c-0.239,0.192 -0.529,0.287 -0.87,0.287c-0.34,0 -0.628,-0.096 -0.862,-0.287c-0.234,-0.192 -0.351,-0.505 -0.351,-0.942Zm4.405,0c0,-0.447 0.117,-0.763 0.351,-0.95c0.234,-0.186 0.521,-0.279 0.862,-0.279c0.34,0 0.63,0.09 0.87,0.271c0.239,0.181 0.359,0.5 0.359,0.958c0,0.436 -0.12,0.75 -0.359,0.942c-0.239,0.192 -0.529,0.287 -0.87,0.287c-0.34,0 -0.628,-0.096 -0.862,-0.287c-0.234,-0.192 -0.351,-0.505 -0.351,-0.942Z" style="fill:#0d0d0d;fill-rule:nonzero;"/><path d="M477.144,61.978l22.198,22.199l-11.099,0l0,29.519l11.099,0l-22.198,22.199l-22.198,-22.199l11.099,0l0,-29.519l-11.099,0l22.198,-22.199Z" style="fill:#d9d9d9;"/><path d="M477.144,61.978l22.198,22.199l-11.099,0l0,29.519l11.099,0l-22.198,22.199l-22.198,-22.199l11.099,0l0,-29.519l-11.099,0l22.198,-22.199Z" style="fill:none;stroke:#0d0d0d;stroke-width:0.99px;"/></g></svg>