<svg xmlns="http://www.w3.org/2000/svg" xml:space="preserve" style="fill-rule:evenodd;clip-rule:evenodd;stroke-linejoin:round;stroke-miterlimit:2" viewBox="0 0 417 595"><path d="M.069-.235c.048-.049.125-.061.192-.048q.1.027.188.083C.459-.246.426-.291.39-.321a.1.1 0 0 1-.023-.027.03.03 0 0 1 0-.02l.005-.014c.014-.023.051-.044.077-.031a.2.2 0 0 1 .061.07c.022.042.03.092.021.139a.2.2 0 0 1-.014.041l.004.002q.165.087.323.186.029.016.047.044c.01.02.008.047-.01.059C.861.14.836.13.816.118L.792.104C.746.076.7.045.648.033a.22.22 0 0 0-.134.012L.487.059C.473.068.459.082.463.097a.1.1 0 0 0 .013.018c.056.048.128.073.19.113C.7.25.735.282.737.324.739.364.708.401.67.415a.2.2 0 0 1-.118.001S.537.413.531.409.512.401.509.392C.505.382.5.361.507.346a.04.04 0 0 1 .04-.022L.56.326c.026.007.063.027.076.028Q.642.354.644.35C.645.346.647.34.635.331.608.31.529.281.476.256S.37.191.357.133a.15.15 0 0 1 .042-.13.23.23 0 0 1 .125-.061L.461-.093a.3.3 0 0 1-.171.085.34.34 0 0 1-.193-.039C.056-.071.029-.099.028-.142c0-.023.013-.058.027-.076zm.255.07a.4.4 0 0 0-.069-.027.15.15 0 0 0-.09.001.07.07 0 0 0-.051.052c-.006.026.016.038.037.05a.22.22 0 0 0 .177.02.2.2 0 0 0 .081-.053z" style="fill:url(#a);fill-rule:nonzero" transform="rotate(125.676 186.083 130.547)scale(669.95828 -669.95828)"/><g transform="rotate(97.291 -44.8 158.015)scale(43.481 -43.481)"><clipPath id="b"><path d="M-4.765-3.074-5.983 6.44 7.592 8.177l1.217-9.514z"/></clipPath><g clip-path="url(#b)"><path d="M-.045.226h1.191S1.104-.295.973-.598l-1.266.37s.173.188.248.454" style="fill:url(#c);fill-rule:nonzero"/></g></g><g transform="rotate(97.178 4.444 193.502)scale(70.81243 -70.81243)"><clipPath id="d"><path d="m-2.64-3.137-.734 5.838 8.33 1.047.734-5.838z"/></clipPath><g clip-path="url(#d)"><path d="M.279-.283h.563S.762.085.507.462L.018.304s.223-.305.261-.587" style="fill:url(#e);fill-rule:nonzero"/></g></g><g transform="rotate(144.211 151.535 76.45)scale(99.84414 -99.84414)"><clipPath id="f"><path d="M2.301-2.275-1.088.168 2.4 5.005 5.788 2.56z"/></clipPath><g clip-path="url(#f)"><path d="M.346.278C.467.38.608.455.759.501A1.4 1.4 0 0 1 .52.282C.415.162.301.039.395-.114a.49.49 0 0 1 .434-.229c.209-.002.401.078.574.191a1.4 1.4 0 0 0-.347-.211C.843-.45.596-.47.386-.377c-.103.045-.2.124-.23.232-.043.158.065.317.19.423" style="fill:url(#g);fill-rule:nonzero"/></g></g><g transform="rotate(179.142 173.112 233.895)scale(244.39246 -244.39246)"><clipPath id="h"><path d="m1.402-1.924-1.71.025.037 2.44L1.438.514z"/></clipPath><g clip-path="url(#h)"><path d="M-.267.164a.53.53 0 0 0 .213.318C.039.541.17.549.255.479.343.406.359.278.351.165c-.013-.201-.076-.4-.06-.601.001-.02.004-.042.017-.058.027-.035.082-.027.123-.01l.075.037a.4.4 0 0 0-.2-.091C.261-.565.205-.554.178-.525c-.027.028-.04.085-.035.136.02.2.092.462.1.594C.251.332.189.414.142.434.097.453.097.454.053.455.007.456-.066.408-.102.382-.163.338-.185.308-.267.164" style="fill:url(#i);fill-rule:nonzero"/></g></g><g transform="rotate(-165.727 48.434 89.676)scale(87.54945 -87.54945)"><clipPath id="j"><path d="m1.342-1.88-4.615-1.174-1.675 6.585 4.615 1.174z"/></clipPath><g clip-path="url(#j)"><path d="M-.312.817C.048.755.384.556.62.278c.136-.159.305-.41.325-.624C.966-.57.716-.779.514-.808a.4.4 0 0 0-.116-.001A1.9 1.9 0 0 1-.312.817" style="fill:url(#k);fill-rule:nonzero"/></g></g><g transform="rotate(149.636 6.18 229.808)scale(127.8157 -127.8157)"><clipPath id="l"><path d="m-.82-3.374-2.813 1.649 2.352 4.014L1.533.641z"/></clipPath><g clip-path="url(#l)"><path d="m.268.769.086.122c.07.096.17.199.288.182.113-.017.182-.144.175-.258C.81.702.747.6.685.504.329-.042-.124-.633-.52-1.15c0 0 .752 1.23.788 1.919" style="fill:url(#m);fill-rule:nonzero"/></g></g><defs><linearGradient id="a" x1="0" x2="1" y1="0" y2="0" gradientTransform="translate(0 .004)" gradientUnits="userSpaceOnUse"><stop offset="0" style="stop-color:#4ee8c4;stop-opacity:1"/><stop offset=".5" style="stop-color:#f5c468;stop-opacity:1"/><stop offset="1" style="stop-color:#e84898;stop-opacity:1"/></linearGradient><linearGradient id="c" x1="0" x2="1" y1="0" y2="0" gradientTransform="rotate(253.64 .466 0)" gradientUnits="userSpaceOnUse"><stop offset="0" style="stop-color:#9a8040;stop-opacity:1"/><stop offset=".5" style="stop-color:#c4a858;stop-opacity:1"/><stop offset="1" style="stop-color:#e0c878;stop-opacity:1"/></linearGradient><linearGradient id="e" x1="0" x2="1" y1="0" y2="0" gradientTransform="rotate(108.304 .437 0)" gradientUnits="userSpaceOnUse"><stop offset="0" style="stop-color:#9a8040;stop-opacity:1"/><stop offset=".5" style="stop-color:#88b068;stop-opacity:1"/><stop offset="1" style="stop-color:#78c898;stop-opacity:1"/></linearGradient><linearGradient id="g" x1="0" x2="1" y1="0" y2="0" gradientTransform="translate(0 .032)" gradientUnits="userSpaceOnUse"><stop offset="0" style="stop-color:#1a4868;stop-opacity:1"/><stop offset="1" style="stop-color:#b06ce0;stop-opacity:1"/></linearGradient><linearGradient id="i" x1="0" x2="1" y1="0" y2="0" gradientTransform="translate(0 -.017)" gradientUnits="userSpaceOnUse"><stop offset="0" style="stop-color:#1a4868;stop-opacity:1"/><stop offset="1" style="stop-color:#b06ce0;stop-opacity:1"/></linearGradient><linearGradient id="k" x1="0" x2="1" y1="0" y2="0" gradientTransform="translate(0 .002)" gradientUnits="userSpaceOnUse"><stop offset="0" style="stop-color:#1a4868;stop-opacity:1"/><stop offset="1" style="stop-color:#b06ce0;stop-opacity:1"/></linearGradient><linearGradient id="m" x1="0" x2="1" y1="0" y2="0" gradientTransform="translate(0 -.015)" gradientUnits="userSpaceOnUse"><stop offset="0" style="stop-color:#ee7d83;stop-opacity:1"/><stop offset="1" style="stop-color:#b06ce0;stop-opacity:1"/></linearGradient></defs></svg>